<?xml version="1.0" encoding="UTF-8" standalone="no"?>
<!-- Created with Inkscape (http://www.inkscape.org/) -->

<svg
   xmlns:dc="http://purl.org/dc/elements/1.1/"
   xmlns:cc="http://creativecommons.org/ns#"
   xmlns:rdf="http://www.w3.org/1999/02/22-rdf-syntax-ns#"
   xmlns:svg="http://www.w3.org/2000/svg"
   xmlns="http://www.w3.org/2000/svg"
   xmlns:sodipodi="http://sodipodi.sourceforge.net/DTD/sodipodi-0.dtd"
   xmlns:inkscape="http://www.inkscape.org/namespaces/inkscape"
   sodipodi:docname="600node.svg"
   inkscape:version="0.92.0 r15299"
   version="1.1"
   id="svg3583"
   height="1260"
   width="1920"
   viewBox="0 0 1920 1260">
  <sodipodi:namedview
     id="base"
     pagecolor="#003af6"
     bordercolor="#ffffff"
     borderopacity="0.337254902"
     inkscape:pageopacity="0.7450980392"
     inkscape:pageshadow="2"
     inkscape:zoom="0.4341269841269841"
     inkscape:cx="960"
     inkscape:cy="630"
     inkscape:document-units="px"
     inkscape:current-layer="svg3583"
     showgrid="false"
     inkscape:object-nodes="true"
     inkscape:object-paths="false"
     inkscape:snap-intersection-paths="false"
     inkscape:snap-smooth-nodes="true"
     inkscape:window-width="1366"
     inkscape:window-height="705"
     inkscape:window-x="-8"
     inkscape:window-y="-8"
     inkscape:window-maximized="1"
     fit-margin-top="0"
     fit-margin-left="0"
     fit-margin-right="0"
     fit-margin-bottom="0"
     showguides="true"
     inkscape:guide-bbox="true"
     inkscape:snap-global="true"
     guidecolor="#ffffff"
     guideopacity="1"
     borderlayer="true"
     inkscape:showpageshadow="false"
     guidehicolor="#8dfeff"
     guidehiopacity="1"
     inkscape:pagecheckerboard="true" />
  <defs
     id="defs3585" />
  <metadata
     id="metadata3588">
    <rdf:RDF>
      <cc:Work
         rdf:about="">
        <dc:format>image/svg+xml</dc:format>
        <dc:type
           rdf:resource="http://purl.org/dc/dcmitype/StillImage" />
        <dc:title />
        <dc:date>2017</dc:date>
        <dc:creator>
          <cc:Agent>
            <dc:title>Lazur URH</dc:title>
          </cc:Agent>
        </dc:creator>
        <dc:description />
      </cc:Work>
    </rdf:RDF>
  </metadata>
  <path
     style="color:#000000;clip-rule:nonzero;display:inline;overflow:visible;visibility:visible;opacity:1;isolation:auto;mix-blend-mode:normal;color-interpolation:sRGB;color-interpolation-filters:linearRGB;solid-color:#000000;solid-opacity:1;vector-effect:none;fill:#8d9aa8;fill-opacity:1;fill-rule:nonzero;stroke:none;stroke-width:10;stroke-linecap:round;stroke-linejoin:round;stroke-miterlimit:4;stroke-dasharray:none;stroke-opacity:1;marker:none;paint-order:markers stroke fill;color-rendering:auto;image-rendering:auto;shape-rendering:auto;text-rendering:auto;enable-background:accumulate"
     d="m 0,0 h 1920 v 1260 h -1920 z"
     id="rect74" />
  <path
     style="color:#000000;clip-rule:nonzero;display:inline;overflow:visible;visibility:visible;opacity:1;isolation:auto;mix-blend-mode:normal;color-interpolation:sRGB;color-interpolation-filters:linearRGB;solid-color:#000000;solid-opacity:1;vector-effect:none;fill:#eee6d4;fill-opacity:1;fill-rule:nonzero;stroke:none;stroke-width:10;stroke-linecap:round;stroke-linejoin:round;stroke-miterlimit:4;stroke-dasharray:none;stroke-opacity:1;marker:none;paint-order:markers stroke fill;color-rendering:auto;image-rendering:auto;shape-rendering:auto;text-rendering:auto;enable-background:accumulate"
     d="m -42.92130558869016,282.4672652175816 204.94923418599555,38.6291750298211 172.7582549944778,11.8033590368898 174.9043202739125,12.876391676607 243.5784092158173,2.1460652794339 203.8762015462783,-11.8033590368898 112.6684271703117,-15.0224569560417 236.067180737797,-13.9494243163244 87.988676456815,20.3876201546272 162.027928597306,-2.1460652794344 96.572937574553,3.2190979191519 151.297602200133,-6.4381958383035 137.348177883809,11.8033590368895 1.79e-10,956.0720819721186 h -1966.86882858814647 z"
     id="path97"
     inkscape:connector-curvature="0"
     sodipodi:nodetypes="cccccccccccccccc" />
  <path
     style="color:#000000;clip-rule:nonzero;display:inline;overflow:visible;visibility:visible;opacity:1;isolation:auto;mix-blend-mode:normal;color-interpolation:sRGB;color-interpolation-filters:linearRGB;solid-color:#000000;solid-opacity:1;vector-effect:none;fill:#ff2a6c;fill-opacity:1;fill-rule:nonzero;stroke:none;stroke-width:10;stroke-linecap:round;stroke-linejoin:round;stroke-miterlimit:4;stroke-dasharray:none;stroke-opacity:1;marker:none;paint-order:markers stroke fill;color-rendering:auto;image-rendering:auto;shape-rendering:auto;text-rendering:auto;enable-background:accumulate"
     d="m 550.7340029159928,686.4640534659554 28.3347690890447,-9.078551e-7 20.6223457825513,2.146065586581 7.9806802747397,1.2071617222292 3.084968845698,-0.3353227006189 10.6632615518109,8.3830678120852 1.2742265902366,8.3830672188807 2.4813879845832,8.9195838364737 4.3591951080508,-0.6706454012385 2.548452524709,5.8346149907744 12.1891630301144,5.3196124170843 48.1805397436111,26.1768286795989 55.9872739462775,24.3683210817655 21.460652422086,19.9852331910937 -151.8341193324305,12.0716176862724 z"
     id="path85"
     inkscape:connector-curvature="0"
     sodipodi:nodetypes="cccccccccccccccc" />
  <path
     style="color:#000000;clip-rule:nonzero;display:inline;overflow:visible;visibility:visible;opacity:1;isolation:auto;mix-blend-mode:normal;color-interpolation:sRGB;color-interpolation-filters:linearRGB;solid-color:#000000;solid-opacity:1;vector-effect:none;fill:#c0c6c4;fill-opacity:1;fill-rule:nonzero;stroke:none;stroke-width:10;stroke-linecap:round;stroke-linejoin:round;stroke-miterlimit:4;stroke-dasharray:none;stroke-opacity:1;marker:none;paint-order:markers stroke fill;color-rendering:auto;image-rendering:auto;shape-rendering:auto;text-rendering:auto;enable-background:accumulate"
     d="m -4.457648362106064,475.4538882693328 8.725609559867191,-0.1896871643449 7.208112245107673,0.3793743286898 8.44107881334978,-0.4742179108623 10.52763762114411,4.4576483621062 12.61419642893843,-5.3112406016584 7.49264299162509,-4.2679611977611 4.83702269079594,-0.6639050752074 4.64733552645111,4.2679611977599 7.11326866293517,6.1648328412107 20.6759008672587,-1.8968712307965 25.11152852322976,-3.446780289357 12.4465300634084,-3.4768016218896 3.7937432868988,-7.2081122451077 4.2679611977612,-1.8968716434495 3.034994629519,-0.4742179108623 0.7587486573798,4.0782740334162 2.7504638830016,-0.189687164345 4.3628047799336,-4.7421791086234 1.4226537325871,-3.3195253760365 4.0475968376394,-0.073530315063 7.8465511944928,2.749646145079 10.5961973395715,3.0849688456978 11.333907280934,-0.2682581604955 9.1207774568464,-2.6155170648309 21.4537620747288,7.5554850066395 24.6593313518311,4.3628047776317 14.6059116468538,3.4143689564074 44.1971092690513,6.6390507485699 5.5009277631007,-5.1215534346111 48.1805397181936,-10.6224811977123 8.1565480625287,0.7587486569793 3.2246817921626,-6.8287379128147 19.7274650814649,-4.7421791061215 5.5009277631008,3.6040561206523 6.2596764200802,0.189687164245 3.6040561206522,0.3793743284895 5.8803020915906,-1.5174973139588 10.2431068692221,1.3278101497141 7.966860898284,-1.8968716424487 -0.5690614927345,-3.0349946279176 6.8287379128148,-3.0349946279178 31.8983733501994,-0.619917615906 4.4262596458399,-1.6095489621236 15.1565860599976,-2.4143234431856 19.4617803715398,-7.6858756547021 23.1418340378726,-3.4143689564073 11.1915426904461,2.6556202994278 8.3462352267736,-6.8287379128149 11.5709170189373,-6.0699892558359 17.4512191105265,0.5690614927346 8.5359223910184,0.9484358212241 14.9852859753438,-1.7071844782036 25.7484101228315,1.1454184576743 15.2907151401746,1.8778071224775 10.8644554943346,6.3040667683177 2.7263225451803,7.7445524335639 16.6924704535476,6.2596764200801 15.9337217965682,2.4659331351833 21.0552752311787,-1.1381229854691 0.7587486569795,-4.9318662703664 2.4659331351829,0.1896871642448 2.6556202994283,5.5009277631007 21.6243367239134,-1.517497313959 11.1915426904467,-4.5524919418765 3.2246817921624,-0.9484358212243 v 2.0865588066935 l 2.0865588066937,3.0349946279177 2.276245970938,-3.7937432848972 1.8968716424488,-5.8803020915905 14.9852859753438,-2.0865588066934 11.9502913474256,5.6906149273457 5.6906149273458,0.3793743284896 4.5524919418765,-1.8968716424485 17.8305934390164,3.2246817921625 6.8287379128151,2.8453074636731 1.8968716424483,8.3462352267737 2.4659331351834,5.6906149273457 6.0699892558356,-1.1381229854692 4.1731176133868,3.6040561206522 30.355172973172,-4.365321738132 h 22.8019436180541 l 30.5814302642134,-1.6095489612744 27.3623323416642,-5.0969050440357 32.4592373857005,-10.193810088071 11.535100889133,-2.4143234419117 16.363747772956,-5.9016795246727 24.1432344191162,-8.047744806372 3.664166914725,-0.5926304310968 0.948435821725,-6.3545200055556 1.422653732587,-7.3977994094528 7.208112245108,-0.4742179108624 7.777173738142,-0.9484358217247 3.224681793864,1.5174973147594 4.837022690796,7.7771737381428 3.319525376037,12.5193528467662 60.320516502185,82.6087612516315 -204.1033889908914,144.1622449910326 -939.33083585365739,282.2544999495642 z"
     id="path95"
     inkscape:connector-curvature="0"
     sodipodi:nodetypes="cccccccccccccccccccccccccccccccccccccccccccccccccccccccccccccccccccccccccccccccccccccccccccccccccccc" />
  <path
     style="color:#000000;clip-rule:nonzero;display:inline;overflow:visible;visibility:visible;opacity:1;isolation:auto;mix-blend-mode:normal;color-interpolation:sRGB;color-interpolation-filters:linearRGB;solid-color:#000000;solid-opacity:1;vector-effect:none;fill:#a4a8b8;fill-opacity:1;fill-rule:nonzero;stroke:none;stroke-width:10;stroke-linecap:round;stroke-linejoin:round;stroke-miterlimit:4;stroke-dasharray:none;stroke-opacity:1;marker:none;paint-order:markers stroke fill;color-rendering:auto;image-rendering:auto;shape-rendering:auto;text-rendering:auto;enable-background:accumulate"
     d="m 344.0925157585843,575.9880860940154 85.3592238651395,-25.4180799953967 40.2136787986879,-17.0718447730283 35.2818125309243,-11.0018555203958 7.9668608940797,-6.069989252632 33.0055665611873,-4.1731176111847 22.0037113404488,-11.7606045777184 11.0018555262008,2.0865588066931 14.9852859753423,-7.2081122413039 4.1731176133861,-4.5524919418761 24.2799570233399,5.88030209159 14.9852859753423,5.6906149273453 25.0387056803197,-1.7071844782043 8.3462352267726,-10.4327940334662 14.2265373183634,-4.3628047776315 9.1049838837523,-13.088414332894 5.8202063915004,-6.3059067108009 11.8033590555724,-0.1341290801768 7.1088412493788,7.2429703295558 4.8286468863706,5.6334213674322 12.474004456457,-7.9136157304406 8.6114148140947,1.2875726601842 16.1234089608115,-1.8968716424485 9.484358212242,0.7587486569794 4.3628047776315,3.7937432848969 5.6906149273452,-0.5690614927346 8.346235226773,3.6040561206521 11.1915426904455,2.276245970938 1.5104824368374,8.7188631852438 5.6334213674322,5.7675504476092 0.8047744810616,7.5112284899097 2.9508397638931,1.3412908017696 2.5484525233625,-1.7436780423006 7.7794866502636,7.9136157304406 4.5603887260173,10.1938100934482 6.4381958484937,2.9508397638931 18.4204310560148,-7.5613950847213 3.5767376423374,3.9399103105992 16.9002640933799,-1.3412908010622 h 13.4129080106188 l 13.9494243310436,-12.0716172095566 21.7289109772025,-20.9241364965653 8.3160029665836,-1.6095489612742 9.6572937676457,-8.3160029665837 23.3384599384767,-4.5603887236105 7.2429713479604,-10.2608754717925 4.1580014876796,-10.9985845803139 3.6214851666888,-1.877807123468 11.7155784514198,-1.7845348480473 8.4410788133491,0.6639050752074 10.2431068746261,-6.1648328412102 11.760604189386,-3.7937432868986 2.940151047346,11.7606041893855 5.311240601658,4.5524919442785 7.397799409453,-2.6556203008292 2.371089554312,-11.0018555320068 8.915296724212,-7.2081122451073 13.562632250662,-5.500927766003 9.488099649936,-6.4308999365106 8.718390211503,2.6825816035391 18.912200304951,-0.4023872405311 3.420292124735,3.2190974839764 13.479972564897,-2.4143234444593 5.163440419602,-7.0868625049901 4.362804779933,0.2845307465173 2.371089554312,-2.8453074651739 13.84716299718,4.9318662729682 2.465933136484,-5.3112406016579 14.416224490215,-9.1998274707291 18.399654321928,6.259676871766 11.001856151538,6.1648323928254 14.985285983249,2.5607767186565 2.584773771051,5.9181685429094 0.938903561734,8.6513256759788 8.331770438781,13.2196753576389 28.687855054966,5.8266544635784 37.797494698778,15.7028395250864 28.832448950003,14.4162244750018 73.59861968817,36.0405611875028 138.491663667386,37.9245417719792 67.06454001771,31.6544628883588 239.822793176088,723.2239994966347 -1846.02901689568716,-16.603128495029 6.82873789199771,-621.0357757007562 255.40410387268957,-47.4924365707983 z"
     id="path89"
     inkscape:connector-curvature="0"
     sodipodi:nodetypes="cccccccccccccccccccccccccccccccccccccccccccccccccccccccccccccccccccccccccccccccccccccc" />
  <path
     style="color:#000000;clip-rule:nonzero;display:inline;overflow:visible;visibility:visible;opacity:1;isolation:auto;mix-blend-mode:normal;color-interpolation:sRGB;color-interpolation-filters:linearRGB;solid-color:#000000;solid-opacity:1;vector-effect:none;fill:#8a95a6;fill-opacity:1;fill-rule:nonzero;stroke:none;stroke-width:10;stroke-linecap:round;stroke-linejoin:round;stroke-miterlimit:4;stroke-dasharray:none;stroke-opacity:1;marker:none;paint-order:markers stroke fill;color-rendering:auto;image-rendering:auto;shape-rendering:auto;text-rendering:auto;enable-background:accumulate"
     d="m 1697.320745662901,547.7246982605953 1.207161721596,-21.3265237481387 4.158001485486,-4.0238724053089 5.499292287255,-1.0730326414157 6.035808607963,-13.9494243384045 8.584261131326,-7.377099409733 4.560388726017,0.9389035612387 6.706454008849,-7.2429703295561 0.804774481061,-3.8897433251317 9.51462739532,-5.3286640061919 9.958576128109,-5.9751456768655 9.010140306385,-3.3195253760364 3.983430451243,1.7071844791047 3.698899704727,-1.9917152256219 2.845307465174,1.5174973147593 1.422653732587,2.845307465174 7.048059199105,-4.8797831946753 6.304066768318,-0.6706454008848 2.146065282831,1.4754198819465 8.316002970972,-12.7422626168117 2.931695951416,-4.9019089870726 9.104983888557,-3.8885868690714 3.319525376036,-2.8453074651738 4.931866272969,-0.2845307465175 3.698899704729,-5.8803020946946 7.018425080763,-2.4659331364842 7.113268662935,2.0865588077943 7.397799409453,-6.5442071699003 6.92358149859,-3.1298382116916 8.06170448466,-0.4742179108623 3.034994629519,-3.4143689582088 2.845307465174,0.6639050752073 1.802028061277,3.6988997047261 3.034994629519,-1.8968716434491 1.327810150415,0.5690614930348 0.853592239552,3.034994629519 5.880302094699,-1.2329665682446 8.630765977693,-4.4576483621062 10.3379504568,-4.1731176155886 7.872017320315,-4.0782740334161 5.880302094693,0.5690614930347 3.414368958209,0.6639050752071 6.449363587728,0.569061493035 7.166626117006,3.4755879125553 9.389034584931,199.8523296897236 -248.543064478522,-41.7144528733869 z"
     id="path93"
     inkscape:connector-curvature="0"
     sodipodi:nodetypes="ccccccccccccccccccccccccccccccccccccccccccccccc" />
  <path
     style="color:#000000;clip-rule:nonzero;display:inline;overflow:visible;visibility:visible;opacity:1;isolation:auto;mix-blend-mode:normal;color-interpolation:sRGB;color-interpolation-filters:linearRGB;solid-color:#000000;solid-opacity:1;vector-effect:none;fill:#b0b7ba;fill-opacity:1;fill-rule:nonzero;stroke:none;stroke-width:10;stroke-linecap:round;stroke-linejoin:round;stroke-miterlimit:4;stroke-dasharray:none;stroke-opacity:1;marker:none;paint-order:markers stroke fill;color-rendering:auto;image-rendering:auto;shape-rendering:auto;text-rendering:auto;enable-background:accumulate"
     d="m 1385.095673315876,581.2993263319357 32.057130757379,-3.9834304491418 32.246817921624,2.4659331351828 26.935577322769,3.793743284897 14.226537318363,-3.0349946279174 17.640906274771,-1.3278101497142 28.832448965219,5.8803020915899 23.90058269485,0.7587486569794 34.143689564074,-1.7071844782047 21.244962395424,-6.0699892558348 7.587486569794,-11.0018555262012 7.208112241304,-4.3628047776316 6.25967642008,1.1381229854692 6.639050748569,0.5690614927346 23.900582694853,-5.1215534346118 20.486213738444,-6.6390507485696 8.915296719508,-4.9318662703662 19.397351522067,3.6713711645016 9.925551933095,0.4023872405306 15.022456979823,8.0477448106168 55.619775122059,8.3647105227908 27.314951651258,-2.2762459709379 40.866413245737,6.7879275077669 30.044913943787,5.3651632042473 32.995753706124,6.1699376848851 8.198032151185,179.9000585005915 -480.600653821784,-48.1853012622131 z"
     id="path91"
     inkscape:connector-curvature="0"
     sodipodi:nodetypes="cccccccccccccccccccccccccccc" />
  <path
     style="color:#000000;clip-rule:nonzero;display:inline;overflow:visible;visibility:visible;opacity:1;isolation:auto;mix-blend-mode:normal;color-interpolation:sRGB;color-interpolation-filters:linearRGB;solid-color:#000000;solid-opacity:1;vector-effect:none;fill:#576981;fill-opacity:1;fill-rule:nonzero;stroke:none;stroke-width:10;stroke-linecap:round;stroke-linejoin:round;stroke-miterlimit:4;stroke-dasharray:none;stroke-opacity:1;marker:none;paint-order:markers stroke fill;color-rendering:auto;image-rendering:auto;shape-rendering:auto;text-rendering:auto;enable-background:accumulate"
     d="m 645.1608756511647,730.0560042208416 31.9227210821159,-3.7556142449552 6.1695692371369,-17.815820308754 1.3278101504145,-10.1482632924537 4.1731176155881,-2.8453074651735 11.5709170250406,0.9484358217245 2.9401510473461,2.1814023899666 5.7854585125204,-1.1381229860699 12.8987271754548,2.371089554312 14.5110680723867,6.4493635877275 4.173117615588,-0.6639050752074 2.3710895543119,-3.319525376036 16.5976268801825,-0.4742179108636 6.3545200055549,1.4226537325868 5.5009277660029,-2.8453074651737 2.8453074651737,-3.3195253760363 4.267961197761,1.3278101504144 3.3195253760357,-5.6906149303478 -0.8535922395516,-11.6657606072126 8.0444794908154,-13.1205343203818 -0.1341290801771,-19.7169747860128 -1.0730326414149,-15.0224569798203 -4.0238724053088,-17.0343931824733 6.9747121692019,-12.7422626168111 6.0358086079633,-5.6334213674322 24.0091053516752,-11.6692299753953 -2.7492312949895,-11.4752256075684 4.3628047776314,-12.3296656759146 15.7440346323217,0.9484358212239 23.3315212021156,-3.0349946279175 5.3112405988555,-1.8968716424483 14.6059116468524,2.276245970938 21.8140238881565,5.1215534346105 11.3812298546907,1.3278101497141 7.3977994055484,5.5009277631003 16.882157617791,0.7587486569794 20.1068394099531,3.2246817921623 6.0699892558349,-5.121553434611 7.5874865697933,0.9484358212244 1.7071844782038,5.1215534346104 7.966860898283,-1.7071844782032 8.3462352267733,6.6390507485694 3.4143689564071,-3.604056120652 8.5359223910179,4.7421791061206 0.569061492734,4.7421791061214 14.795598811098,8.1565480625278 11.191542690445,-3.2246817921623 3.224681792163,-9.1049838837522 9.484358212242,-4.1731176133862 11.570917018935,5.1215534346106 13.657475825628,0.9484358212242 8.535922391018,-2.2762459709384 10.432794033466,1.3278101497142 24.659331351829,-10.2431068692215 15.744034632322,0.3793743284897 23.331521202115,1.8968716424486 23.710895530605,-2.845307463673 8.535922391018,-1.7071844782032 19.158403588729,1.5174973139588 9.104983883752,2.276245970938 5.690614927346,-2.276245970938 17.071844782035,4.1731176133862 7.777173734039,3.0349946279174 2.086558806693,-3.0349946279174 h 16.692470453546 l 8.915296719507,-1.8968716424482 3.604056120652,2.0865588066931 31.867443593133,-0.5690614927346 44.386796433292,-1.7071844782033 19.348090752974,2.8453074636726 23.90058269485,-1.3278101497142 19.537777917219,4.5524919418764 21.434649559666,1.8968716424482 50.456785689128,17.6409062747703 50.836160017617,16.3130961250563 7.018425077059,3.7937432848966 2.538932351357,5.5548784051058 -1.475419881947,4.42625964584 8.047744810618,4.0238724053087 v 6.1699376881397 l 2.682581603539,6.1699376881404 7.51122848991,1.6095489621232 3.219097924247,1.0730326414157 3.219097924247,8.1818738907948 1.475419881946,5.0969050467244 4.694517806194,1.3412908017692 3.08496884407,7.1088412493791 8.181873890794,1.6095489621232 4.694517806194,5.0969050467246 16.229618701412,4.5603887260168 15.022456979819,1.8778071224774 9.120777452033,2.4143234431851 22.801943630083,3.0849688440701 34.337044525302,2.2801943630084 24.143234431852,-2.2801943630084 9.120777452033,-4.4262596458395 4.962775966548,-2.0119362026544 4.023872405309,0.5365163207077 19.448716625659,8.0477448106176 15.961360541057,5.9016795277862 20.119362026544,0.1341290801769 21.997169149021,3.8897433251318 11.669229975396,5.6334213674322 11.669229975395,7.5112284899095 14.217682498758,1.3412908017698 6.304066768316,4.8286468863705 13.412908017697,3.4873560846006 15.693102380703,3.3532270044242 11.53510089522,1.6095489621234 12.474004456456,3.0849688440701 7.779486650265,6.3040667683171 18.241554904067,7.3770994097327 14.735496944568,4.5019771320945 3e-12,211.6908750738523 v 320.1919329073866 h -1233.5664496368244 z"
     id="path87"
     inkscape:connector-curvature="0"
     sodipodi:nodetypes="ccccccccccccccccccccccccccccccccccccccccccccccccccccccccccccccccccccccccccccccccccccccccccccccccccccccccccccccccccccc" />
  <path
     style="color:#000000;clip-rule:nonzero;display:inline;overflow:visible;visibility:visible;opacity:1;isolation:auto;mix-blend-mode:normal;color-interpolation:sRGB;color-interpolation-filters:linearRGB;solid-color:#000000;solid-opacity:1;vector-effect:none;fill:#485872;fill-opacity:1;fill-rule:nonzero;stroke:none;stroke-width:10;stroke-linecap:round;stroke-linejoin:round;stroke-miterlimit:4;stroke-dasharray:none;stroke-opacity:1;marker:none;paint-order:markers stroke fill;color-rendering:auto;image-rendering:auto;shape-rendering:auto;text-rendering:auto;enable-background:accumulate"
     d="m -6.572324932138532,589.2204696811262 15.69310238898384,-13.1446498642767 13.41290801288296,-9.5231643317019 21.5947819084896,-3.2190979242471 8.58426113132506,-8.5842611313251 6.43819584849381,3.3532270044241 20.52174926707392,-4.0238724053087 12.47400445645674,-0.134129080177 17.43678042300409,-6.974712169202 17.973296743712,-13.6811661780499 56.3342136743209,11.937488135748 13.9494243384033,-0.5365163207076 57.2731172355596,18.6439421445964 2.816710683716,3.2190979242466 4.8286468863704,-4.962775966547 7.3770994097325,1.7436780423004 0.9389035612387,3.8897433251317 10.5961973339793,-3.2190979242471 28.4674451687002,5.1551448585294 25.6077671730527,11.5709170189349 3.6040561206518,6.8287379128142 20.4862137384422,4.9318662703656 27.6943259797461,13.4677886613823 7.7771737340383,6.6390507485695 8.5359223910175,2.4659331351827 8.1565480625279,3.2246817921623 23.1418340378698,2.6556202994277 8.9152967195077,7.397799405548 15.1749731395868,2.0865588066931 9.6740453764867,10.2431068692208 1.7071844782036,7.9668608982835 10.053419704976,8.1565480625278 1.7071844782035,4.5524919418758 8.3462352267729,4.1731176133867 16.3130961250557,-8.1565480625279 8.1565480625277,-2.276245970938 8.9152967195073,-5.5009277631005 7.5874865697933,-0.758748656979 8.9152967195073,4.1731176133862 20.2965265741973,16.5027832893004 8.1565480625279,11.1915426904457 8.1565480625278,8.7256095552624 6.0699892558348,11.7606041831793 5.6906149273451,5.8803020915899 42.6796119550883,22.5727725451352 5.3112409349435,8.9152964443715 5.5957713481749,6.2596764233823 75.1594388084675,29.2406808796967 23.740847191321,7.6453575700865 45.0673709394574,10.9985845745099 10.9985845745105,4.4262596458394 15.4248442203495,1.4754198819467 36.0807225676009,9.3890356123868 42.1132201021112,9.0954716846479 40.4033659841499,3.2246817921622 34.52306389256,3.604056120652 32.8158794143567,8.9152967195073 20.4862137384425,6.8287379128138 44.576483597536,21.2449623954217 49.128975539412,23.5212083663597 38.127120013212,18.3996549317492 41.541488969619,16.3130961250557 31.108694936153,11.9502913474247 33.954002399826,8.3462352267727 14.416224482607,5.5009277631001 14.226537318363,4.5524919418758 7.208112241304,7.0184250770592 9.674045376486,13.8471629898729 9.674045376487,13.0884143328939 21.244962395422,13.2781014971383 30.349946279173,7.9668608982829 2.845307463673,5.88030209159 47.042416732719,7.018425077059 13.847162989873,31.867443593133 61.576226507793,229.805605865567 h -1503.95742341789446 z"
     id="path83"
     inkscape:connector-curvature="0"
     sodipodi:nodetypes="ccccccccccccccccccccccccccccccccccccccccccccccccccccccccccccccccccccccccccccc" />
  <path
     style="color:#000000;clip-rule:nonzero;display:inline;overflow:visible;visibility:visible;opacity:1;isolation:auto;mix-blend-mode:normal;color-interpolation:sRGB;color-interpolation-filters:linearRGB;solid-color:#000000;solid-opacity:1;vector-effect:none;fill:#344262;fill-opacity:1;fill-rule:nonzero;stroke:none;stroke-width:10;stroke-linecap:round;stroke-linejoin:round;stroke-miterlimit:4;stroke-dasharray:none;stroke-opacity:1;marker:none;paint-order:markers stroke fill;color-rendering:auto;image-rendering:auto;shape-rendering:auto;text-rendering:auto;enable-background:accumulate"
     d="m -9.79142285291685,1119.030336734033 50.164275986176754,-19.180458465303 60.73040540922841,-21.570181615266 43.0589862835738,-18.968716424482 64.2743457689079,-34.841645019695 61.6993768813943,-38.2267878504288 22.6678145499036,-22.3995563895496 77.9289955828045,-46.8110489817536 14.8063839219473,2.2899108489954 9.9585761281075,-18.2099677771113 27.3149516656665,-20.4862137492496 9.3895146350727,-14.9852859832474 51.1990009978394,-21.1722757151142 1.7436780423002,-21.9971691490189 9.7914228529169,-13.0105207771635 0.2682584216421,-16.2296189476949 4.8957114290417,-8.450132055606 3.8226785211729,-9.5231644418213 0.9389035612387,-10.3279391736246 13.5470370978713,-13.9494243384022 3.8897433251325,-16.9002641022961 7.377099409732,-22.9360727102576 9.523164692563,-16.2296187014102 3.3532270044234,0.4023872405307 19.3145875454802,10.1938100934475 11.4009718150403,10.1938100934482 10.9985845745092,4.2921305656622 12.8763916969871,7.7794866502627 27.2282032759198,11.1327136546864 24.7386081645936,14.3422169400111 8.1565480668311,3.9834304512433 11.8554477715563,4.5524919442778 13.7523194150059,8.0617044846582 8.494552495191,15.9382694514375 27.8317837719259,21.5277176186108 94.1784323730148,31.7698281379312 90.9196982711718,29.7954196632861 110.9247493063347,34.8735608460055 155.187345147177,52.8468577498013 61.56524841877,16.2296185413254 29.106010398397,11.9374881357483 65.052603885819,17.0343931824722 48.908037901253,15.398909107248 42.015707627919,3.793743158789 43.607721888307,6.426002047759 7.418126095089,2.062498435046 17.261531964495,-2.228824182229 17.735749082529,1.422653855392 25.89229793308,-5.121553437313 19.6326215097,-5.595771348175 29.496354055633,-17.451219119732 24.849018529185,-5.3112406016572 9.2946710529,-3.5092125403808 6.733894334244,-4.2679611977604 11.096699114177,-2.8453074651741 15.174973147593,-2.7504638830011 10.50481117239,-12.4144258448723 5.365163209909,-3.6214851666889 v -2.2801943642107 l 4.359195108051,-1.5424844228487 0.804774481486,-6.1028731512712 18.576877614312,-18.7110066945577 12.553148608713,-5.3100981604358 12.993570757626,-7.2081122451067 33.7643152534,-13.752319415007 18.416766453819,-0.5552860444955 34.471173605476,6.035808607963 38.360916930611,6.4381958484928 36.348980727953,0.9389035612387 29.273446192331,-0.8124868594462 22.567444311031,-2.272482163676 14.421552716724,-1.3315739569781 -1.13e-10,347.6528591455519 h -1944.203694774420455 z"
     id="path77"
     inkscape:connector-curvature="0"
     sodipodi:nodetypes="ccccccccccccccccccccccccccccccccccccccccccccccccccccccccccccccccccccccccccc" />
  <path
     style="color:#000000;clip-rule:nonzero;display:inline;overflow:visible;visibility:visible;opacity:1;isolation:auto;mix-blend-mode:normal;color-interpolation:sRGB;color-interpolation-filters:linearRGB;solid-color:#000000;solid-opacity:1;vector-effect:none;fill:#152045;fill-opacity:1;fill-rule:nonzero;stroke:none;stroke-width:10;stroke-linecap:round;stroke-linejoin:round;stroke-miterlimit:4;stroke-dasharray:none;stroke-opacity:1;marker:none;paint-order:markers stroke fill;color-rendering:auto;image-rendering:auto;shape-rendering:auto;text-rendering:auto;enable-background:accumulate"
     d="m 1299.926136569806,1268.725609555262 33.195253742845,-15.174973139586 28.073700308235,-8.156548062528 32.62619225011,-14.605911646851 13.657475825628,-8.915296719508 29.591197622193,-10.432794033465 10.585206031005,-12.602946514013 20.924136507604,-7.377099409733 4.962775966547,-8.986648371855 16.229618701411,-6.974712169202 10.193810093448,-6.035808607962 3.219097924249,-8.181873890794 10.99858457451,-5.231034126901 15.961360541057,-4.962775966547 17.705038583359,-26.825816035391 20.387620186897,-19.31458754548 46.379936623079,-38.617378009415 44.291320701243,-41.323553652056 8.047744806371,-27.0940741814418 43.994338274827,-45.0673709156762 13.412908010617,-10.4620682482822 26.021041540606,-37.5561424297314 189.735819486769,-8e-13 -5.8e-11,366.4406468441224 h -639.336496002739 z"
     id="path79"
     inkscape:connector-curvature="0"
     sodipodi:nodetypes="cccccccccccccccccccccccccc" />
  <path
     style="color:#000000;clip-rule:nonzero;display:inline;overflow:visible;visibility:visible;opacity:1;isolation:auto;mix-blend-mode:normal;color-interpolation:sRGB;color-interpolation-filters:linearRGB;solid-color:#000000;solid-opacity:1;vector-effect:none;fill:#596981;fill-opacity:1;fill-rule:nonzero;stroke:none;stroke-width:10;stroke-linecap:round;stroke-linejoin:round;stroke-miterlimit:4;stroke-dasharray:none;stroke-opacity:1;marker:none;paint-order:markers stroke fill;color-rendering:auto;image-rendering:auto;shape-rendering:auto;text-rendering:auto;enable-background:accumulate"
     d="m -12.89872716864856,673.8666624834695 20.675900902686663,4.1731176133865 15.561286229065864,-1.6354082547031 27.21316933481667,-2.1583353392599 23.90058270745963,-4.6473355264502 2.18140238996658,-4.1731176155881 4.45764836210557,-6.2596764233823 4.6473354812119,-9.5792014773438 26.74589015852138,-0.7587486569796 23.3315212021145,-11.1915426904452 85.9282854029091,-15.7440346323208 15.1276604653081,-24.7582933651347 10.4620682482821,-10.4620682482822 17.4367804138037,-0.5365163204243 36.7513679490943,-9.9255519278586 27.0159962200049,-16.9143339693802 -199.2377351445663,-61.685306570579 -149.6880533195181,39.7022076904814 z"
     id="path81"
     inkscape:connector-curvature="0"
     sodipodi:nodetypes="ccccccccccccccccccc" />
</svg>
