<?xml version="1.0" standalone="no"?>
<!DOCTYPE svg PUBLIC "-//W3C//DTD SVG 20010904//EN"
 "http://www.w3.org/TR/2001/REC-SVG-20010904/DTD/svg10.dtd">
<svg version="1.0" xmlns="http://www.w3.org/2000/svg"
 width="2560.000000pt" height="1440.000000pt" viewBox="0 0 2560.000000 1440.000000"
 preserveAspectRatio="xMidYMid meet">
<metadata>
Created by potrace 1.15, written by Peter Selinger 2001-2017
</metadata>
<g transform="translate(0.000000,1440.000000) scale(0.100000,-0.100000)"
fill="#000000" stroke="none">
<path d="M22551 11786 c-8 -9 -10 -31 -7 -58 4 -24 8 -203 11 -398 2 -195 7
-389 10 -430 3 -41 8 -108 11 -149 5 -68 4 -73 -13 -66 -10 5 -28 8 -40 8 -13
-1 -21 3 -18 8 3 4 -11 11 -32 15 -21 4 -48 14 -61 22 -18 12 -65 15 -215 17
-106 2 -194 4 -197 5 -3 1 -8 2 -11 2 -3 0 -22 3 -42 8 -20 4 -39 4 -42 -1 -3
-4 -11 -6 -18 -4 -7 2 -47 6 -89 9 -57 4 -78 2 -78 -7 0 -7 -3 -8 -8 -2 -9 12
-82 15 -82 3 0 -4 -7 -8 -16 -8 -8 0 -12 5 -9 11 5 7 -8 9 -41 4 -71 -10 -82
-14 -64 -25 12 -8 11 -10 -5 -10 -17 0 -17 -2 -5 -10 13 -8 13 -10 -2 -10 -9
0 -20 9 -23 20 -3 11 -13 20 -21 20 -13 0 -64 -70 -64 -89 0 -5 -7 -15 -17
-22 -21 -18 -93 -167 -93 -194 0 -11 11 -42 25 -68 l26 -47 -23 -9 c-13 -5
-37 -12 -55 -15 -17 -4 -44 -19 -60 -34 -24 -23 -35 -26 -83 -24 -217 9 -374
52 -506 138 -111 72 -157 118 -148 147 4 12 12 25 18 29 21 14 -9 25 -56 20
-46 -4 -65 -23 -35 -35 7 -3 5 -6 -5 -6 -22 -1 -24 -27 -3 -35 25 -9 17 -30
-26 -77 -23 -24 -89 -102 -147 -174 -170 -209 -574 -594 -677 -646 -11 -5 -56
-31 -100 -58 -71 -42 -81 -46 -92 -32 -11 14 -12 14 -13 -1 0 -9 -6 -18 -12
-21 -10 -3 -10 -7 1 -20 9 -11 10 -17 2 -17 -14 0 -15 -27 -1 -32 7 -2 13 -97
17 -256 l6 -253 -63 -64 c-57 -58 -65 -62 -91 -55 -22 7 -31 5 -39 -8 -8 -15
-9 -14 -10 7 0 18 -4 22 -17 15 -10 -4 -48 -8 -86 -8 -49 -1 -66 -4 -62 -13 3
-9 -6 -13 -25 -13 -16 0 -50 -11 -77 -24 -47 -24 -47 -25 -23 -35 16 -6 19
-10 8 -10 -13 -1 -16 -8 -12 -36 3 -25 0 -37 -11 -41 -21 -8 -19 -21 5 -27 24
-6 37 -52 20 -72 -7 -9 -29 -15 -51 -15 -40 0 -79 -24 -79 -47 0 -7 -6 -23
-12 -36 -7 -12 -14 -23 -14 -25 -1 -2 -58 -5 -127 -8 -120 -5 -129 -4 -180 20
-66 32 -97 34 -97 6 0 -13 -7 -20 -20 -20 -11 0 -20 -4 -20 -10 0 -5 9 -10 20
-10 11 0 20 4 20 9 0 13 49 20 57 9 11 -19 -22 -28 -99 -28 l-78 0 0 -35 0
-35 -80 0 c-73 0 -80 -2 -80 -20 0 -17 7 -20 40 -20 l40 0 0 -101 0 -101 83 5
c45 3 74 4 64 1 -31 -10 -67 -54 -67 -82 0 -24 -6 -30 -47 -45 -27 -9 -63 -17
-80 -17 -18 0 -33 -4 -33 -10 0 -5 -16 -10 -36 -10 -19 0 -44 -5 -54 -10 -10
-6 -32 -11 -47 -13 -16 -2 -34 -6 -40 -10 -7 -4 -14 -3 -18 2 -3 5 1 13 9 18
13 7 13 11 0 27 -13 19 -20 11 -15 -16 0 -5 -4 -8 -9 -8 -6 0 -10 6 -10 13 0
6 -3 22 -6 35 -6 19 -3 23 12 20 17 -3 19 3 16 50 -4 47 -2 52 17 52 18 0 21
6 21 40 l0 40 -40 0 -40 0 0 40 0 40 40 0 40 0 0 40 0 40 40 0 c40 0 40 0 40
39 0 36 -3 40 -27 44 -16 2 2 2 40 -1 63 -4 67 -3 67 17 0 18 -6 21 -40 21
-30 0 -40 4 -40 16 0 13 -7 15 -31 10 -17 -3 -38 -6 -45 -6 -8 0 -14 -6 -14
-14 0 -8 -6 -16 -14 -19 -21 -8 -56 4 -56 19 0 16 -26 19 -35 4 -3 -5 -14 -10
-24 -10 -10 0 -24 -7 -31 -15 -7 -8 -27 -17 -46 -21 -19 -3 -32 -10 -29 -14 6
-9 -19 -20 -45 -20 -9 0 -23 -6 -29 -14 -6 -7 -50 -28 -99 -47 -48 -18 -96
-41 -106 -51 -11 -10 -29 -18 -40 -18 -11 0 -27 -7 -36 -15 -9 -8 -34 -18 -56
-23 -27 -6 -39 -13 -38 -25 1 -9 -4 -17 -12 -17 -8 0 -14 -7 -14 -15 0 -10
-10 -15 -29 -15 -16 0 -31 6 -35 15 -7 18 -36 20 -36 2 0 -6 14 -25 30 -40 36
-35 38 -50 6 -75 -18 -13 -23 -25 -19 -41 6 -22 -12 -30 -20 -8 -6 17 -24 -2
-32 -35 -7 -26 -5 -28 24 -28 29 0 31 -2 31 -40 l0 -39 48 -1 c26 0 68 -1 95
-1 26 0 47 -5 47 -10 0 -5 15 -9 33 -8 17 0 47 -4 65 -9 36 -12 36 -13 32 61
l-2 47 41 0 41 0 0 40 0 40 41 0 41 0 -6 -42 c-3 -24 -8 -61 -11 -83 -5 -29
-4 -36 4 -25 6 8 11 11 11 5 0 -5 -10 -21 -21 -35 l-20 -25 4 63 c2 34 0 62
-3 62 -12 0 -40 -36 -40 -51 0 -33 -40 -99 -60 -99 -11 0 -25 -9 -32 -20 -7
-11 -19 -20 -26 -20 -7 0 -20 -4 -30 -10 -9 -5 -36 -14 -60 -20 -23 -6 -40
-15 -37 -19 5 -8 -60 -27 -78 -22 -5 1 -6 -8 -2 -19 5 -15 3 -19 -10 -14 -15
6 -106 -33 -113 -48 -7 -15 -32 5 -27 22 3 10 -1 24 -8 32 -8 8 -22 29 -31 47
-17 32 -17 33 3 26 16 -5 21 -2 21 12 0 11 -5 24 -12 31 -9 9 -9 12 0 12 7 0
12 -4 12 -9 0 -17 33 -21 50 -6 9 8 21 15 26 15 15 0 39 43 25 48 -6 2 -11 10
-11 18 0 10 -12 14 -40 14 -22 0 -40 -5 -40 -10 0 -6 -8 -10 -17 -8 -11 2 -18
-3 -18 -12 0 -8 8 -14 18 -14 9 1 17 -4 17 -11 0 -22 -41 -4 -51 22 -7 18 -4
28 11 43 11 11 25 20 30 20 6 0 10 11 10 25 0 19 -5 25 -21 25 -18 0 -19 -3
-9 -15 9 -11 8 -19 -4 -37 -11 -15 -16 -17 -16 -8 0 13 -2 13 -10 0 -7 -11
-10 -11 -10 -2 0 7 -4 10 -10 7 -6 -4 -10 8 -11 27 -1 31 -2 30 -11 -12 -6
-25 -13 -38 -16 -30 -3 8 -9 18 -15 21 -12 8 1 31 14 24 5 -4 9 4 9 17 0 18
-2 20 -10 8 -9 -13 -10 -13 -11 0 -1 8 -3 22 -4 30 -1 8 -3 23 -4 33 -1 12
-10 17 -33 17 -39 0 -52 -8 -61 -35 -6 -18 -5 -18 12 3 11 12 22 19 25 14 2
-4 -8 -22 -24 -39 -24 -25 -36 -31 -64 -29 -25 2 -33 0 -29 -10 3 -8 9 -14 13
-14 4 0 11 -7 14 -16 4 -11 2 -15 -8 -11 -8 3 -17 -1 -20 -9 -4 -10 -2 -12 6
-8 7 5 8 3 3 -6 -5 -8 -20 -10 -44 -6 -22 3 -31 2 -22 -3 7 -5 10 -14 6 -20
-5 -9 -11 -7 -22 6 -14 17 -14 17 -9 0 3 -10 6 -22 6 -26 0 -3 18 -6 40 -6 27
0 40 -4 40 -13 0 -7 -4 -11 -8 -8 -4 2 -14 1 -22 -5 -13 -7 -13 -9 0 -9 13 0
13 -1 0 -11 -13 -9 -13 -10 0 -6 8 2 14 9 13 15 -2 6 4 9 11 6 10 -4 16 3 18
18 2 13 11 24 23 27 11 2 23 8 26 13 4 7 9 6 13 -1 4 -6 2 -11 -3 -11 -6 0
-11 -7 -11 -15 0 -18 -16 -20 -23 -2 -3 6 -6 2 -6 -11 -1 -12 -9 -26 -18 -29
-10 -4 -21 -11 -25 -16 -3 -6 -20 -10 -38 -10 -19 0 -26 -3 -18 -8 7 -4 9 -11
5 -15 -4 -4 -13 -2 -20 5 -9 10 -7 16 11 29 22 17 21 32 -2 32 -6 0 -4 -5 4
-10 11 -7 3 -10 -30 -11 -28 -1 -35 -4 -19 -6 20 -3 26 -9 22 -22 -7 -27 -72
-25 -103 3 -14 12 -34 29 -44 37 -18 13 -19 13 -7 -8 9 -17 9 -28 0 -44 -6
-12 -7 -19 -1 -15 5 3 13 -1 16 -10 8 -22 8 -26 -4 -19 -5 3 -20 -1 -32 -9
-21 -15 -21 -15 8 -11 16 2 40 7 54 10 20 4 21 4 6 -3 -11 -5 -15 -11 -10 -15
6 -3 16 -2 23 2 15 10 53 2 46 -8 -2 -4 -29 -6 -59 -4 -59 3 -82 -11 -52 -33
10 -7 16 -16 13 -21 -6 -10 104 -8 145 3 l27 6 -20 -43 c-47 -105 -53 -114
-82 -117 -19 -2 -34 3 -43 15 -12 15 -15 16 -23 3 -7 -9 -6 -19 1 -27 7 -9 7
-18 -3 -30 -12 -16 -12 -17 2 -6 12 10 21 10 42 0 37 -17 34 -31 -4 -23 -17 3
-42 6 -56 6 -14 0 -21 4 -18 10 3 6 -5 14 -19 20 -19 7 -26 17 -26 35 0 20 5
25 28 26 28 0 75 16 57 19 -5 1 -27 1 -47 0 -26 -1 -47 5 -65 20 -25 20 -26
22 -5 16 13 -5 22 -3 22 3 0 6 -4 11 -10 11 -5 0 -10 5 -10 11 0 7 10 9 26 5
18 -5 24 -3 19 5 -4 6 -1 16 6 21 10 6 6 7 -11 2 -22 -6 -23 -5 -8 10 9 9 23
16 30 16 7 1 0 7 -17 15 -16 7 -24 14 -17 14 17 1 15 37 -3 65 -15 23 -11 56
6 56 15 0 10 27 -6 34 -8 3 -15 12 -15 21 0 8 -4 15 -10 15 -5 0 -10 8 -10 18
1 16 1 16 14 0 7 -10 18 -18 24 -18 19 0 26 23 10 34 -23 17 -50 74 -38 81 6
3 10 12 9 18 0 9 -2 9 -6 0 -9 -25 -20 -13 -26 30 -12 81 -27 117 -47 117 -16
0 -20 -7 -20 -30 0 -23 -6 -33 -25 -40 -22 -8 -25 -16 -25 -56 0 -38 -3 -45
-16 -40 -9 3 -12 2 -8 -5 3 -6 -6 -23 -21 -39 -15 -16 -24 -33 -20 -40 4 -6 1
-18 -6 -26 -21 -25 6 -42 31 -19 26 23 25 15 -1 -30 -17 -27 -24 -33 -31 -23
-7 10 -9 10 -7 -2 3 -33 -2 -40 -31 -40 -20 0 -30 5 -30 15 0 8 -4 15 -10 15
-5 0 -10 -12 -10 -26 0 -23 3 -25 31 -19 29 7 30 6 20 -14 -10 -18 -9 -21 9
-21 11 0 20 -4 20 -10 0 -5 -4 -10 -10 -10 -5 0 -10 -9 -10 -20 0 -11 -5 -20
-12 -20 -6 0 -1 -11 11 -24 l22 -24 -33 -12 c-30 -11 -31 -13 -13 -20 11 -5
16 -9 10 -9 -5 -1 -3 -6 5 -11 13 -9 11 -13 -9 -31 -14 -11 -37 -23 -53 -26
-32 -6 -38 -23 -8 -23 52 0 -40 -56 -172 -104 -27 -10 -48 -21 -48 -26 0 -4
18 0 40 11 21 10 43 19 48 19 4 0 40 15 78 34 39 19 71 30 75 25 3 -5 14 -7
24 -3 13 6 16 4 10 -5 -4 -8 -2 -17 6 -23 11 -8 10 -9 -4 -4 -23 7 -57 -13
-50 -31 3 -8 -2 -13 -14 -13 -10 0 -23 -4 -29 -8 -5 -5 -43 -15 -84 -22 -41
-7 -83 -17 -93 -22 -10 -5 -26 -7 -34 -3 -14 5 -14 8 3 21 19 15 19 15 -1 8
-68 -24 -115 -7 -115 43 0 31 -16 29 -32 -4 -14 -28 -44 -47 -36 -22 3 8 -4
26 -14 41 l-19 28 25 0 c17 0 26 5 26 16 0 9 6 14 13 11 6 -2 11 -10 9 -17 -3
-11 0 -11 12 0 23 19 19 39 -9 46 -20 5 -25 12 -25 37 0 21 -12 45 -38 76 -37
44 -62 83 -62 96 0 3 14 -2 30 -12 16 -9 30 -21 30 -25 0 -4 14 -8 30 -8 39 0
37 9 -9 45 -23 18 -36 36 -33 44 3 9 1 12 -6 7 -11 -7 -17 6 -12 29 1 5 -1 24
-5 43 -4 24 -10 32 -21 28 -8 -3 -14 -1 -14 4 0 6 6 10 13 10 8 0 7 4 -3 11
-11 8 -12 12 -2 16 6 2 12 9 12 14 0 6 -4 8 -9 4 -12 -7 -31 26 -31 54 0 12
-4 21 -10 21 -5 0 -7 -6 -5 -13 3 -6 -4 -18 -16 -25 -20 -13 -21 -12 -16 7 7
30 -6 26 -20 -6 -9 -19 -10 -29 -2 -34 8 -5 8 -8 0 -13 -6 -4 -11 -17 -11 -30
0 -19 -5 -22 -37 -20 -35 1 -38 -1 -39 -28 -1 -17 2 -24 6 -18 6 9 9 9 15 0 4
-6 -1 -18 -11 -26 -11 -9 -13 -13 -7 -9 9 4 11 1 7 -9 -3 -9 -12 -16 -19 -16
-7 0 -15 -9 -18 -21 -7 -26 16 -35 49 -21 28 13 29 7 10 -39 -16 -37 -68 -95
-94 -104 -9 -4 -30 -22 -45 -41 -31 -37 -21 -44 27 -19 34 18 55 20 39 4 -6
-6 -9 -17 -7 -23 3 -7 -7 -25 -22 -40 l-27 -27 -13 29 c-10 24 -24 33 -83 52
l-70 23 -146 -48 c-80 -26 -149 -45 -152 -41 -4 3 0 6 7 6 7 0 10 3 7 6 -4 4
-13 1 -21 -5 -21 -17 -64 16 -129 99 -45 57 -52 72 -59 130 -4 36 -12 66 -17
68 -6 2 -15 20 -22 40 -6 20 -22 48 -35 62 -22 24 -22 27 -9 54 8 16 15 37 15
48 0 15 5 18 21 13 19 -6 20 -5 8 8 -8 8 -20 12 -27 10 -8 -4 -10 0 -6 11 3 8
11 14 17 13 7 -1 11 4 9 12 -2 7 6 23 17 35 17 18 19 32 16 91 -1 39 -6 79
-10 90 -7 22 -71 55 -105 55 -11 0 -28 4 -38 9 -9 5 -39 14 -67 21 -93 23
-130 35 -135 41 -5 7 -68 20 -113 24 -18 2 -32 -4 -41 -17 -9 -13 -26 -20 -50
-21 -20 -1 -31 -4 -25 -8 13 -7 6 -12 -60 -46 -25 -13 -59 -23 -78 -23 -32 0
-33 1 -35 43 -1 37 -2 38 -5 9 -4 -28 -7 -31 -19 -21 -11 9 -14 8 -14 -10 0
-14 8 -22 28 -27 15 -3 31 -7 36 -8 10 -2 -83 -63 -136 -88 -21 -10 -38 -22
-38 -27 0 -17 -50 -61 -70 -61 -25 0 -27 17 -2 23 14 3 -75 2 -100 -2 -4 -1
-3 -13 3 -28 11 -31 -1 -44 -34 -35 -12 3 -18 1 -14 -5 7 -11 -40 -40 -49 -30
-6 6 -64 -19 -64 -28 0 -2 12 0 26 5 31 12 37 12 30 1 -4 -5 0 -11 6 -14 7 -3
-13 -3 -45 -2 -31 2 -60 -1 -63 -6 -3 -5 -13 -9 -23 -9 -10 0 -26 -9 -37 -21
-10 -11 -26 -18 -36 -16 -10 3 -18 1 -18 -3 0 -4 -8 -6 -18 -3 -10 2 -46 -12
-81 -31 -35 -20 -67 -36 -72 -36 -5 0 -12 -6 -15 -14 -6 -16 -40 -27 -60 -19
-23 8 -16 22 9 16 16 -3 18 -2 8 5 -7 5 -11 16 -9 23 3 8 -4 27 -15 42 -10 16
-16 31 -13 35 4 3 11 0 16 -8 6 -9 10 -10 10 -3 0 6 -13 27 -30 45 -38 41 -38
49 -1 35 17 -6 28 -14 25 -18 -2 -4 1 -11 7 -15 8 -4 9 -3 5 4 -4 8 0 12 11
12 9 0 -3 10 -27 23 -29 14 -45 30 -47 44 -1 13 -9 37 -16 55 l-14 33 -13 -37
c-8 -21 -20 -38 -28 -38 -7 0 -10 -4 -7 -10 3 -5 0 -10 -7 -10 -7 0 -19 -4
-27 -9 -12 -8 -12 -12 -2 -25 11 -13 11 -19 1 -31 -7 -8 -10 -22 -6 -30 4 -11
-1 -15 -17 -15 -17 0 -19 -2 -7 -10 12 -8 12 -10 -3 -16 -22 -8 -22 -19 2 -30
18 -9 18 -11 -10 -44 -28 -33 -30 -34 -35 -14 -3 12 -22 30 -42 40 -21 11 -40
22 -43 26 -3 5 -24 9 -47 10 -23 1 -42 5 -42 10 0 4 -10 8 -22 7 -22 0 -22 -1
-3 -9 16 -7 13 -9 -16 -9 -29 -1 -38 4 -48 25 -13 30 -5 115 13 126 7 5 4 8
-8 8 -15 0 -17 6 -14 30 3 17 1 30 -3 30 -9 0 -50 -56 -74 -102 -22 -42 -39
-37 -50 13 -4 16 -12 29 -18 29 -7 0 -25 7 -40 15 -15 8 -25 10 -22 5 9 -14
-4 -12 -60 8 -50 19 -91 22 -112 9 -7 -4 -13 0 -16 10 -4 17 -5 17 -6 1 -1
-25 -12 -21 -41 14 -16 21 -20 33 -12 36 19 6 14 40 -8 47 -11 3 -20 11 -20
16 0 12 27 12 32 -1 2 -5 3 14 3 43 1 28 -1 44 -3 35 -6 -29 -22 -21 -38 18
-13 30 -13 39 -2 46 9 6 6 7 -9 3 -27 -8 -29 -2 -6 25 10 11 28 20 40 20 13 0
23 5 23 11 0 6 -7 9 -15 5 -8 -3 -15 -2 -15 2 0 4 14 13 30 19 23 8 29 16 24
30 -5 15 -4 15 5 3 5 -8 13 -11 18 -7 9 9 -17 28 -32 23 -5 -2 -8 -11 -7 -21
3 -16 1 -17 -12 -6 -14 11 -16 11 -16 -4 0 -17 -1 -17 -20 0 -23 21 -63 95
-51 95 5 0 11 -9 14 -20 3 -11 10 -20 16 -20 18 0 25 30 11 43 -10 9 -11 7 -5
-10 4 -14 2 -23 -4 -23 -6 0 -11 8 -11 18 0 10 -16 49 -35 88 -25 50 -35 83
-36 119 l0 50 -34 -69 c-19 -37 -39 -74 -44 -80 -13 -16 -98 -12 -141 6 -25
11 -37 12 -42 4 -6 -8 -11 -7 -17 3 -7 11 -13 12 -23 4 -7 -6 -50 -23 -96 -38
-45 -15 -80 -30 -78 -32 4 -4 114 29 184 55 6 2 12 -3 12 -11 0 -9 -15 -17
-42 -21 -29 -5 -38 -10 -29 -15 15 -9 49 -3 68 11 7 5 16 7 22 4 5 -3 33 -1
61 5 28 6 53 9 55 7 2 -1 -6 -14 -18 -28 -11 -14 -18 -18 -15 -10 5 13 -1 15
-31 11 -20 -2 -30 -6 -23 -8 8 -3 12 -28 12 -75 0 -73 -12 -99 -47 -97 -16 0
-16 1 2 9 15 6 9 9 -27 9 -47 1 -47 1 -51 39 l-4 37 -1 -37 c-2 -32 -6 -37
-34 -44 -18 -4 -68 -7 -111 -8 -55 -1 -80 -5 -86 -15 -5 -8 -16 -11 -24 -8
-11 4 -14 1 -11 -7 3 -7 -2 -18 -10 -25 -8 -7 -14 -18 -12 -24 1 -7 1 -9 -1
-4 -11 19 -24 4 -18 -21 4 -21 0 -35 -20 -58 -14 -16 -23 -21 -19 -11 7 19
-11 24 -19 5 -4 -10 -8 -9 -17 2 -9 12 -10 11 -5 -7 4 -14 2 -23 -4 -23 -6 0
-11 -9 -11 -20 0 -11 5 -20 10 -20 6 0 10 7 10 15 0 8 5 15 11 15 7 0 5 -10
-5 -25 -18 -27 -20 -36 -8 -33 4 0 18 -4 32 -10 14 -6 18 -11 10 -12 -8 0 -25
-3 -37 -6 -14 -4 -23 -2 -23 5 0 6 8 8 18 4 26 -9 11 2 -32 26 -35 18 -40 25
-40 58 -1 46 17 71 39 53 13 -11 15 -8 15 17 0 16 -3 32 -6 36 -10 9 -34 -4
-34 -19 0 -8 -6 -11 -15 -8 -12 5 -13 9 -3 21 8 11 9 16 0 21 -6 4 -12 37 -13
72 -1 36 -6 73 -11 83 -6 11 -5 17 3 17 7 0 10 13 7 35 -3 30 -1 35 17 35 15
0 17 2 6 9 -8 5 -19 7 -26 5 -6 -3 -18 2 -25 11 -10 13 -15 13 -21 3 -7 -10
-11 -10 -21 0 -9 9 -9 12 1 12 7 0 9 5 6 11 -4 6 -10 8 -13 5 -3 -3 -12 3 -20
15 -8 11 -11 23 -7 27 4 4 10 1 12 -5 5 -14 43 -18 43 -5 0 5 -11 15 -25 22
-26 14 -31 25 -16 34 5 3 11 -1 15 -9 5 -15 26 -21 26 -7 0 4 -14 22 -30 41
-17 18 -30 43 -31 55 0 15 -2 16 -6 6 -3 -8 -11 -18 -17 -22 -8 -5 -7 -8 2 -8
6 0 12 -4 12 -9 0 -5 -7 -8 -17 -7 -10 1 -19 -10 -25 -31 -5 -21 -19 -37 -40
-47 -36 -19 -41 -20 -33 -6 8 12 -5 13 -23 1 -11 -6 -9 -9 7 -14 15 -4 18 -10
14 -28 -5 -18 -3 -21 11 -16 21 8 15 -3 -32 -54 -41 -44 -63 -52 -37 -13 16
25 16 26 -2 22 -15 -3 -18 -13 -18 -67 0 -64 2 -67 43 -88 2 -1 -9 -15 -24
-32 -20 -23 -30 -28 -36 -19 -6 10 -10 10 -19 -2 -8 -12 -9 -9 -3 10 4 14 12
28 18 32 16 11 -6 9 -23 -1 -16 -10 -20 -6 -67 54 -17 22 -34 57 -38 78 -10
55 -36 43 -36 -18 0 -13 -4 -27 -10 -30 -5 -3 -10 -16 -10 -28 0 -12 -4 -28
-9 -36 -6 -10 -8 0 -5 27 2 24 -1 42 -6 42 -6 0 -10 -12 -10 -27 -1 -16 -3
-46 -5 -68 -4 -31 -3 -36 5 -20 9 17 9 15 5 -9 -3 -15 -12 -35 -20 -42 -25
-25 -29 -56 -9 -71 10 -7 12 -13 6 -13 -7 0 -12 -7 -12 -15 0 -8 -4 -15 -10
-15 -5 0 -10 7 -10 15 0 8 5 15 10 15 6 0 5 6 -2 14 -22 23 -48 -2 -48 -46 0
-21 4 -38 9 -38 6 0 7 16 4 35 -7 44 12 47 21 4 7 -35 1 -49 -20 -49 -8 0 -14
-4 -14 -10 0 -5 6 -7 14 -4 8 3 17 1 21 -5 3 -7 -2 -11 -14 -11 -12 0 -21 -5
-21 -11 0 -7 11 -9 30 -5 38 7 38 -1 -4 -84 -28 -58 -35 -65 -61 -65 -23 -1
-31 -6 -33 -23 -2 -12 -8 -19 -14 -16 -6 4 -8 -1 -4 -13 5 -14 -1 -23 -19 -33
-14 -7 -25 -17 -25 -22 0 -14 -48 -9 -53 7 -5 11 0 13 23 8 25 -5 31 -2 40 21
12 33 13 39 1 32 -11 -7 -41 3 -41 14 0 5 8 11 18 13 9 2 7 3 -5 2 -12 -1 -30
6 -39 16 -21 24 -12 36 10 14 14 -14 16 -14 16 -1 0 8 10 17 22 19 l23 4 -22
2 c-23 1 -28 18 -24 76 2 16 0 17 -8 6 -7 -10 -13 -1 -23 35 -8 27 -11 51 -7
54 4 3 9 16 12 30 2 14 4 3 4 -23 0 -26 4 -52 9 -57 7 -7 9 5 8 32 -1 24 -2
53 -3 66 -1 12 -7 22 -16 22 -9 0 -15 -10 -16 -22 -1 -13 -3 -16 -5 -8 -3 8 2
36 10 63 12 39 12 47 1 47 -8 0 -17 -5 -21 -11 -4 -8 -9 -7 -15 2 -7 11 -9 10
-9 -3 0 -11 -8 -18 -18 -18 -28 0 -53 -33 -57 -76 -2 -22 -1 -33 1 -26 6 13
24 17 24 4 0 -5 -13 -22 -29 -38 -22 -21 -28 -35 -24 -51 3 -15 1 -23 -7 -23
-7 0 -10 7 -6 15 7 20 -8 19 -25 -2 -16 -19 -20 -65 -5 -56 5 4 0 -7 -12 -24
-27 -37 -27 -42 -4 -60 16 -12 15 -13 -8 -11 -18 2 -25 9 -25 25 0 11 -3 25
-7 29 -5 4 -8 -4 -8 -18 0 -14 -7 -31 -15 -38 -12 -10 -15 -7 -21 15 -3 14 -4
49 -2 78 3 29 3 46 1 39 -3 -6 -10 -9 -16 -5 -7 4 -21 8 -32 8 -18 1 -20 -7
-23 -75 -2 -41 -8 -76 -13 -78 -5 -2 -9 -11 -9 -20 0 -9 -14 -42 -31 -72 l-32
-54 -11 34 c-7 20 -9 40 -4 46 5 6 7 33 5 60 -3 45 -6 49 -27 46 -29 -3 -28
-1 -34 -37 -3 -16 -10 -31 -16 -33 -5 -2 -10 -9 -10 -15 0 -7 -7 -21 -15 -31
-14 -19 -16 -19 -61 4 -25 14 -50 33 -54 44 -5 15 -17 20 -46 22 -143 6 -144
6 -138 30 3 12 1 25 -6 29 -6 4 -8 16 -5 28 2 12 2 16 -1 10 -10 -23 -25 -13
-18 12 4 15 2 25 -5 25 -6 0 -11 -4 -11 -10 0 -15 -17 -12 -23 4 -4 10 -1 13
9 9 10 -4 14 2 14 22 0 27 1 27 19 11 18 -16 18 -16 13 9 -2 14 -10 24 -16 22
-19 -6 -39 23 -43 66 -6 58 -11 70 -27 64 -17 -7 -30 43 -15 57 6 6 9 4 9 -7
0 -9 5 -17 11 -17 15 0 6 21 -14 34 -25 16 -51 -5 -55 -43 -2 -18 -9 -31 -17
-31 -8 0 -11 -7 -8 -18 6 -25 -22 -91 -42 -98 -8 -3 -15 -12 -15 -18 0 -7 -6
-24 -12 -39 -14 -29 -38 -37 -38 -13 0 8 -4 18 -10 21 -5 3 -7 0 -4 -8 5 -14
-35 -67 -50 -67 -4 0 -4 10 -1 23 5 17 4 19 -4 7 -17 -24 -31 7 -25 55 4 30 3
36 -5 25 -9 -12 -11 -10 -11 13 0 15 5 27 10 27 6 0 10 5 10 12 0 9 -3 9 -12
0 -16 -16 -29 -15 -25 0 1 7 -8 14 -21 16 -21 3 -27 -5 -23 -35 2 -18 -9 -16
-31 4 -17 15 -18 15 -18 0 0 -10 7 -17 15 -17 21 0 19 -6 -16 -56 -33 -45 -50
-49 -48 -11 0 12 3 16 6 10 8 -20 19 -15 32 14 9 19 9 29 2 31 -6 2 -13 19
-17 39 -5 25 -9 31 -15 21 -5 -8 -8 18 -7 64 1 42 6 72 10 65 5 -8 8 -8 8 -1
0 6 -9 19 -20 29 -16 14 -22 15 -34 5 -9 -6 -15 -15 -14 -18 6 -23 -17 -82
-44 -112 -30 -34 -30 -34 -24 -8 4 18 1 30 -9 35 -8 5 -17 26 -19 47 -6 41
-12 53 -22 43 -4 -4 -1 -13 6 -22 7 -9 11 -18 8 -20 -6 -6 -64 77 -73 103 -4
15 -18 23 -43 28 -20 3 -68 12 -107 20 -38 8 -74 15 -80 15 -5 1 4 5 20 9 17
4 -7 5 -52 2 -63 -4 -83 -2 -83 8 0 9 -11 11 -38 7 -58 -10 -112 2 -112 24 0
16 -8 19 -59 19 -32 0 -74 3 -92 6 -19 4 -31 4 -28 0 3 -3 33 -11 65 -16 l59
-9 -75 3 c-80 4 -140 23 -118 38 8 5 0 7 -22 7 -28 0 -31 -2 -15 -8 l20 -8
-20 -4 c-33 -7 -75 2 -75 16 0 7 -3 15 -7 17 -5 2 -18 22 -30 44 -20 37 -21
42 -5 39 9 -1 12 0 6 2 -6 2 -11 21 -10 43 0 23 -6 46 -17 57 -19 22 -22 43
-6 43 5 0 7 4 4 10 -4 6 2 7 17 1 21 -8 23 -6 24 23 1 17 -1 23 -3 13 -3 -13
-16 4 -41 55 -21 40 -40 74 -44 76 -5 2 -5 15 -2 28 5 19 2 24 -14 24 -12 0
-23 -9 -27 -20 -4 -11 -11 -18 -16 -15 -5 4 -9 1 -9 -4 0 -6 5 -11 11 -11 5 0
8 -4 4 -9 -3 -5 -1 -12 5 -16 6 -4 7 -11 4 -17 -4 -6 -10 -5 -16 3 -6 9 -7 4
-3 -17 4 -22 1 -36 -9 -47 -9 -9 -16 -26 -16 -39 0 -13 -5 -30 -10 -38 -7 -12
-12 -6 -25 24 -9 21 -14 44 -11 52 3 7 1 14 -5 16 -5 2 -10 38 -12 81 -1 42
-3 72 -5 67 -2 -6 -12 -10 -21 -10 -20 0 -36 -30 -46 -83 -4 -20 -14 -38 -22
-41 -8 -3 -11 -10 -8 -16 3 -6 3 -19 0 -30 -7 -22 -44 -27 -76 -10 -26 15 -24
37 3 35 44 -4 67 38 28 50 -11 3 -20 11 -20 16 0 6 5 7 12 3 8 -5 9 -2 5 10
-4 10 -7 26 -7 37 0 12 -7 19 -20 19 -25 0 -26 17 -3 23 13 3 14 5 3 6 -16 1
-40 44 -40 73 0 29 16 21 28 -14 11 -31 11 -31 8 -5 -3 21 0 27 10 23 19 -7
18 9 -2 25 -17 14 -35 50 -41 84 -2 11 -10 34 -17 50 -8 17 -18 42 -21 58 -9
33 -21 35 -31 5 -4 -13 -22 -44 -40 -71 -18 -26 -36 -56 -39 -67 -8 -25 -22
-26 -28 -2 -2 9 -2 3 0 -14 4 -38 -5 -64 -22 -64 -15 0 -28 -28 -19 -42 3 -5
15 -8 25 -5 22 6 26 -8 4 -17 -8 -3 -15 -14 -15 -25 0 -13 -12 -27 -31 -37
-26 -13 -30 -20 -26 -43 10 -48 -1 -68 -41 -75 -26 -4 -41 -1 -54 11 -13 11
-30 14 -63 11 -31 -4 -45 -2 -45 7 0 6 -25 18 -54 25 -30 7 -57 19 -60 26 -3
8 -11 11 -19 8 -8 -3 -20 2 -27 11 -7 8 -23 15 -36 15 -12 0 -26 4 -29 10 -7
11 -27 9 -69 -9 -16 -6 -47 -14 -70 -16 -22 -2 -81 -9 -129 -16 -49 -6 -94 -8
-101 -6 -17 7 -25 48 -14 77 7 19 6 21 -5 12 -11 -9 -16 -4 -25 25 -10 31 -9
39 3 46 8 4 15 13 15 19 0 9 -3 9 -12 0 -9 -9 -15 -5 -25 19 -7 17 -10 35 -7
40 3 5 1 9 -5 9 -5 0 -15 -17 -22 -37 -17 -56 -64 -144 -92 -176 l-25 -28 -16
23 c-9 12 -16 18 -16 12 0 -6 10 -23 21 -38 19 -24 20 -30 9 -52 -8 -13 -22
-24 -32 -24 -14 0 -18 -8 -19 -35 -1 -19 -3 -39 -4 -45 -1 -5 -3 -13 -4 -17
-1 -5 -8 -16 -16 -27 -14 -18 -16 -17 -65 14 -39 25 -50 38 -51 59 0 22 -2 23
-8 7 -5 -12 -10 -16 -14 -9 -4 6 -4 18 -1 27 4 10 1 16 -9 16 -25 0 -51 51
-48 94 2 25 -1 36 -8 32 -6 -4 -11 0 -11 8 0 8 4 17 9 20 14 9 13 153 -3 218
-8 35 -17 77 -20 93 -3 17 -3 -6 -1 -49 2 -51 8 -82 17 -87 8 -5 9 -9 2 -9
-23 0 -35 30 -41 97 l-6 68 -109 54 c-60 29 -121 64 -134 78 -18 18 -24 20
-24 8 0 -26 -14 -17 -42 29 -23 39 -24 43 -7 39 13 -4 19 0 19 11 0 9 -3 16
-7 16 -9 0 -51 130 -55 169 -5 39 -26 36 -45 -6 -10 -21 -24 -42 -30 -46 -7
-4 -13 -17 -13 -28 0 -23 -30 -79 -42 -79 -4 0 -12 9 -18 20 -6 11 -23 26 -39
34 -18 10 -34 31 -45 60 -18 46 -29 56 -42 35 -4 -8 -9 -7 -15 2 -6 9 -7 -2
-3 -28 5 -34 2 -47 -15 -69 -11 -15 -21 -34 -21 -43 -1 -9 -7 -27 -16 -41 -14
-24 -14 -22 -8 25 4 28 4 47 0 44 -11 -11 -23 -129 -13 -129 6 0 7 -3 4 -7 -4
-3 -20 5 -35 19 -56 54 -100 70 -166 63 -33 -3 -63 -8 -67 -10 -4 -3 -28 -2
-53 1 -34 5 -46 11 -46 24 0 9 -14 29 -31 44 -28 25 -31 33 -26 70 3 22 3 33
0 24 -6 -22 -6 -22 -44 1 -17 10 -39 16 -50 14 -10 -3 -37 2 -60 11 -22 9 -45
14 -50 11 -5 -4 -32 -10 -59 -14 l-50 -8 -1 41 c-1 23 0 57 1 77 1 25 -4 38
-14 42 -9 4 -16 13 -16 20 0 7 -11 20 -25 27 -14 7 -25 19 -25 27 0 7 -6 22
-13 33 -10 17 -9 22 2 29 7 5 10 14 7 20 -5 7 1 11 13 11 28 0 26 10 -9 50
-17 19 -28 40 -26 47 3 7 1 13 -3 13 -15 0 -22 33 -10 41 10 5 5 25 -19 76
-17 37 -30 75 -30 83 2 34 -2 70 -9 70 -9 -1 -36 -55 -54 -110 -7 -19 -27 -53
-46 -74 -23 -27 -33 -51 -34 -75 -3 -80 -6 -91 -23 -104 -23 -17 -13 -37 17
-37 17 0 18 -3 9 -12 -10 -10 -16 -10 -30 0 -9 7 -25 15 -34 18 -16 6 -15 8 2
27 21 22 18 37 -6 37 -11 0 -13 -6 -9 -19 5 -17 0 -21 -31 -27 -22 -4 -51 -2
-71 5 -25 10 -42 10 -61 2 -15 -6 -54 -15 -88 -20 -82 -13 -132 -35 -145 -65
-9 -19 -17 -24 -33 -20 -27 6 -56 -23 -53 -54 2 -27 17 -30 17 -3 0 20 27 48
37 37 3 -3 -2 -15 -12 -26 -10 -11 -15 -20 -11 -20 3 0 -5 -18 -20 -39 -19
-29 -34 -41 -60 -45 -19 -4 -38 -5 -42 -2 -4 2 -7 26 -6 53 2 27 -4 57 -12 70
-18 28 -18 34 1 27 8 -4 15 -1 15 5 0 6 7 11 16 11 9 0 14 7 12 18 -2 10 -12
17 -27 17 -13 0 -26 6 -29 14 -3 10 0 12 12 8 10 -4 16 -1 16 8 0 8 7 15 15
15 9 0 15 -9 15 -21 0 -18 2 -19 15 -9 19 16 19 30 0 30 -8 0 -15 9 -15 21 0
43 -17 58 -55 49 -29 -7 -37 -5 -45 10 -14 27 -12 32 9 25 12 -4 21 0 25 11 7
18 -10 44 -29 44 -10 0 -19 13 -43 63 -2 4 3 7 12 7 22 0 20 17 -4 32 -11 7
-20 17 -20 22 0 6 5 5 12 -2 18 -18 31 -14 25 8 -4 15 0 20 14 20 25 0 24 13
-2 25 -11 6 -30 25 -42 44 l-21 34 30 -7 29 -8 -27 29 c-23 24 -27 34 -21 66
3 20 2 37 -3 37 -21 -1 -35 -20 -50 -70 -18 -61 -41 -100 -58 -100 -7 0 -13
-13 -13 -29 0 -26 3 -29 19 -20 24 13 23 -2 -2 -24 -11 -9 -20 -22 -20 -29 0
-9 3 -8 10 2 5 8 10 10 10 4 0 -6 -7 -17 -15 -24 -8 -7 -15 -19 -15 -27 0 -13
3 -13 15 -3 27 22 28 2 2 -24 -25 -25 -43 -35 -34 -18 3 4 -4 16 -14 26 -18
19 -28 10 -10 -10 5 -5 12 -19 16 -31 9 -30 -12 -30 -26 0 -8 18 -9 18 -5 2 2
-11 7 -29 12 -39 4 -11 4 -17 -2 -14 -5 3 -10 -21 -11 -54 -3 -67 -12 -83 -49
-92 -29 -8 -51 -53 -33 -70 8 -8 13 -8 16 2 3 6 9 12 14 12 6 0 5 -8 -1 -20
-6 -11 -19 -19 -28 -18 -9 2 -16 -2 -15 -8 2 -8 -9 -8 -35 1 -48 17 -52 32 -7
27 23 -3 35 0 35 8 0 8 -10 9 -30 5 -29 -6 -44 9 -17 18 6 2 -4 4 -23 4 -19 1
-29 -1 -22 -4 6 -3 12 -9 12 -14 0 -11 -27 -12 -32 -1 -1 4 -30 16 -63 28 -44
15 -60 25 -60 39 0 10 -6 20 -14 23 -10 3 -12 0 -8 -12 6 -14 -2 -16 -58 -16
-35 0 -75 -4 -89 -10 -16 -6 -27 -6 -31 0 -11 18 -25 10 -22 -12 2 -20 -3 -23
-37 -23 -26 0 -41 -5 -44 -15 -4 -13 -3 -13 11 -2 9 8 22 12 29 10 7 -3 -5
-13 -27 -23 -22 -10 -48 -26 -57 -34 -37 -34 -47 -40 -52 -32 -3 5 1 11 9 15
8 3 14 13 14 23 -1 17 -2 17 -6 0 -3 -10 -18 -20 -34 -24 -32 -6 -40 -23 -11
-23 15 -1 15 -2 -2 -12 -11 -6 -29 -11 -40 -12 -14 -1 -21 -8 -22 -21 0 -20
-4 -32 -31 -96 -15 -37 -10 -109 8 -109 5 0 3 -11 -6 -24 -19 -28 -65 -25 -65
5 0 20 -25 25 -49 10 -13 -8 -13 -12 -1 -26 12 -14 9 -14 -22 2 -20 10 -34 21
-31 26 2 4 -4 7 -14 7 -10 0 -30 6 -45 14 -15 8 -40 17 -56 21 -17 3 -33 13
-36 21 -4 10 -13 13 -25 9 -13 -4 -27 1 -41 15 -21 21 -29 22 -190 18 -93 -2
-163 1 -157 5 8 6 5 7 -6 3 -10 -3 -26 -6 -35 -6 -13 0 -14 -2 -3 -9 10 -6 10
-10 1 -16 -6 -4 -17 -2 -23 4 -17 17 -26 13 -20 -7 7 -27 -60 -95 -77 -79 -10
9 -12 7 -7 -11 4 -16 0 -25 -11 -29 -9 -4 -26 -18 -38 -32 l-21 -25 1 32 c1
21 5 31 14 27 6 -2 12 3 12 11 0 8 -5 12 -10 9 -12 -7 -26 22 -16 33 4 3 11 0
16 -8 8 -12 10 -10 10 8 0 13 -4 20 -10 17 -6 -3 -10 5 -10 19 0 14 -4 28 -10
31 -16 10 -12 33 8 39 9 2 4 4 -13 4 -90 -3 -92 -2 -89 42 2 30 -1 40 -12 40
-13 0 -13 2 0 16 9 8 16 21 16 27 0 7 -4 6 -10 -3 -8 -13 -10 -12 -10 3 0 9
-4 17 -10 17 -12 0 -2 59 13 78 6 8 12 32 13 54 1 24 -1 36 -6 28 -4 -7 -13
-9 -20 -5 -9 6 -9 10 1 17 10 7 8 8 -7 3 -14 -3 -28 1 -39 11 -14 14 -21 15
-36 6 -11 -7 -20 -8 -24 -2 -4 6 1 13 11 17 15 6 15 7 -4 14 -24 9 -30 29 -9
30 6 0 3 4 -7 8 -20 8 -25 22 -30 79 -3 38 -28 67 -50 59 -13 -5 -16 -22 -16
-79 -2 -274 -4 -367 -10 -363 -4 3 -13 18 -20 35 -7 16 -15 30 -19 30 -11 0
-11 -111 0 -132 8 -15 8 -23 -2 -32 -9 -8 -10 -8 -4 3 6 10 4 12 -5 6 -9 -5
-10 -1 -6 16 6 21 5 22 -4 6 -8 -13 -8 -22 -1 -31 5 -6 8 -23 5 -37 l-5 -24
14 24 c10 16 16 20 19 10 5 -16 -22 -50 -35 -42 -5 3 -1 -10 8 -28 12 -23 14
-34 6 -37 -6 -2 -11 -8 -11 -13 0 -5 8 -4 19 2 11 8 17 20 14 33 -3 19 -3 19
6 -2 11 -24 10 -38 -1 -35 -15 5 -8 -45 7 -51 9 -3 15 -18 15 -39 0 -19 3 -37
7 -41 4 -3 7 -15 8 -25 1 -13 -3 -17 -14 -13 -14 5 -13 2 1 -14 17 -19 15 -64
-2 -64 -5 0 -16 -3 -26 -7 -12 -4 -15 -3 -10 5 4 7 6 12 4 13 -2 0 -52 3 -113
6 -67 3 -113 9 -117 16 -5 8 -8 6 -8 -5 0 -35 -20 -17 -22 20 l-1 37 -4 -33
-4 -34 -52 6 c-131 14 -233 31 -240 40 -4 6 -6 27 -3 46 2 19 0 58 -4 85 -7
42 -8 35 -7 -42 2 -66 -2 -94 -10 -98 -10 -3 -13 -947 -13 -4670 l0 -4665
12800 0 12800 0 0 5604 c0 3887 -3 5607 -11 5611 -6 5 -7 11 0 19 6 7 6 17 1
26 -8 13 -10 13 -10 -1 0 -9 -14 -34 -31 -55 -17 -21 -26 -40 -20 -42 12 -4
-19 -54 -56 -89 -29 -28 -31 -48 -3 -33 24 13 25 7 4 -26 l-17 -25 -31 30
c-17 16 -44 33 -61 37 -29 6 -48 15 -116 50 -16 9 -45 30 -63 48 -27 28 -43
34 -106 44 -41 6 -82 11 -90 11 -8 0 -30 4 -48 7 -18 4 -53 1 -78 -6 -24 -7
-47 -11 -50 -8 -2 3 0 17 6 32 6 18 6 25 0 21 -6 -3 -10 -13 -10 -21 0 -17
-12 -18 -28 -2 -10 10 -14 10 -21 0 -4 -7 -15 -10 -24 -6 -20 7 -22 -7 -5 -24
17 -17 3 -26 -20 -13 -12 6 -32 11 -47 11 -14 0 -42 7 -63 16 -20 9 -57 18
-82 20 -25 2 -79 8 -120 13 -41 5 -78 7 -82 5 -4 -3 -8 1 -8 8 0 23 17 40 36
36 14 -2 19 3 19 19 0 12 3 25 7 28 8 8 -10 64 -27 85 -19 24 -63 219 -63 278
1 91 -13 84 -69 -30 -22 -46 -50 -109 -63 -142 -19 -49 -65 -130 -98 -171 -46
-59 -53 -85 -22 -85 16 0 12 -7 -22 -37 -23 -21 -50 -46 -60 -55 -10 -10 -22
-18 -26 -18 -5 0 -19 -8 -30 -19 -65 -55 23 -63 101 -9 30 21 38 11 9 -12 -39
-33 -174 -120 -190 -123 -25 -4 -42 -16 -42 -30 0 -13 20 -18 72 -21 26 -1 27
-2 10 -16 -10 -8 -24 -26 -31 -40 -15 -30 -98 -93 -111 -85 -5 3 -12 22 -15
43 -16 91 -22 90 -55 -11 -12 -38 -27 -70 -34 -71 -6 -2 -69 -13 -141 -26 -71
-12 -143 -24 -159 -27 -18 -4 -31 -1 -37 8 -6 11 -12 9 -29 -9 -11 -12 -28
-22 -37 -22 -20 0 -63 -46 -63 -68 0 -9 -9 -41 -21 -71 -19 -50 -19 -73 -3
-114 4 -10 -8 -22 -35 -38 -23 -12 -41 -26 -41 -31 0 -17 -29 -7 -44 17 -9 13
-34 42 -56 64 -22 22 -40 46 -40 53 0 8 -12 25 -26 39 -14 13 -32 36 -40 52
-8 15 -23 27 -33 27 -11 0 -28 15 -40 35 -11 19 -25 35 -31 35 -6 0 -10 57
-10 160 0 100 -4 160 -10 160 -5 0 -10 -24 -10 -52 0 -88 -13 -220 -20 -209
-8 13 -14 283 -14 614 0 137 -2 244 -4 238 -2 -6 -8 -11 -13 -11 -6 0 -7 6 -3
13 5 9 4 9 -5 1 -7 -6 -13 -41 -14 -77 -5 -111 -14 -86 -22 57 -10 192 -22
231 -54 192z m-1965 -1422 c27 -14 58 -34 70 -45 11 -10 26 -19 33 -19 7 0 41
-11 76 -25 45 -18 109 -31 219 -44 86 -10 159 -20 161 -23 5 -5 -20 -90 -38
-126 -8 -18 -8 -28 1 -43 12 -19 10 -19 -90 -17 -99 2 -107 0 -217 -40 -67
-25 -155 -49 -210 -57 -53 -8 -110 -17 -126 -20 l-30 -5 -3 296 -4 295 54 -50
c30 -28 77 -62 104 -77z m-189 76 c0 -16 -4 -27 -8 -25 -4 3 -3 -11 1 -31 11
-46 0 -474 -12 -474 -5 0 -7 -4 -4 -9 3 -4 -61 -41 -143 -82 -141 -69 -150
-75 -179 -123 -17 -28 -41 -62 -54 -75 -46 -48 -58 -75 -58 -127 0 -60 -12
-74 -73 -85 -23 -4 -57 -10 -76 -14 -20 -5 -32 -4 -28 1 3 5 -18 8 -46 7 -29
-1 -88 7 -132 17 -95 24 -215 62 -215 70 0 3 41 30 91 60 50 30 100 63 112 73
11 9 23 17 27 17 3 0 28 21 56 46 27 26 65 58 84 72 45 33 362 348 392 390 13
17 53 68 90 114 38 46 74 90 80 99 11 14 92 107 94 109 0 0 1 -13 1 -30z
m-971 -1000 c77 -27 210 -60 243 -61 14 0 35 -4 46 -8 18 -7 15 -11 -22 -30
-28 -14 -48 -33 -56 -54 -18 -42 -67 -100 -180 -215 l-92 -93 -6 43 c-10 70
-21 402 -13 421 8 21 8 21 80 -3z m-3470 -2195 c-10 -7 -15 -19 -11 -25 4 -6
-4 -21 -17 -33 -14 -13 -27 -33 -30 -45 -5 -19 -3 -20 12 -12 22 12 30 13 30
3 0 -12 -61 -44 -71 -37 -14 8 -11 -20 4 -35 10 -10 7 -11 -14 -6 -19 5 -28 2
-32 -9 -4 -9 -2 -16 3 -16 6 0 10 5 10 12 0 6 6 4 13 -7 10 -12 16 -14 21 -7
4 7 15 12 23 12 14 0 13 -4 -5 -20 -12 -12 -22 -28 -22 -36 0 -11 -6 -14 -22
-9 -49 14 -68 28 -62 47 4 14 1 16 -12 11 -31 -12 -10 21 24 37 41 19 39 46
-3 42 -49 -6 -113 8 -119 24 -3 9 3 27 14 41 11 14 18 28 16 32 -2 3 10 7 27
7 18 1 75 11 127 22 117 25 119 25 96 7z"/>
<path d="M18707 8674 c-4 -4 -4 -17 -1 -30 4 -17 -1 -27 -22 -41 -26 -17 -58
-18 -445 -18 -230 0 -411 -4 -403 -8 7 -4 202 -8 431 -9 230 0 413 -2 406 -5
-8 -3 -5 -11 8 -24 23 -23 39 -25 39 -4 0 8 -6 14 -12 13 -7 -2 -13 3 -12 10
3 36 5 42 14 42 14 0 12 -27 -2 -33 -8 -3 -5 -6 6 -6 15 -1 18 5 14 44 -3 39
-1 44 17 41 11 -2 14 -1 8 1 -7 3 -13 11 -13 19 0 14 -21 19 -33 8z"/>
</g>
</svg>
