<?xml version="1.0" encoding="UTF-8" standalone="no"?>
<!-- Created with Inkscape (http://www.inkscape.org/) -->

<svg
   xmlns:dc="http://purl.org/dc/elements/1.1/"
   xmlns:cc="http://creativecommons.org/ns#"
   xmlns:rdf="http://www.w3.org/1999/02/22-rdf-syntax-ns#"
   xmlns:svg="http://www.w3.org/2000/svg"
   xmlns="http://www.w3.org/2000/svg"
   xmlns:sodipodi="http://sodipodi.sourceforge.net/DTD/sodipodi-0.dtd"
   xmlns:inkscape="http://www.inkscape.org/namespaces/inkscape"
   id="svg2422"
   sodipodi:docname="whale.svg"
   inkscape:export-filename="/home/roger/mis-dibujos/open/whale_cartoon.png"
   viewBox="0 0 599.11 327.51"
   sodipodi:version="0.32"
   inkscape:export-xdpi="90"
   version="1.0"
   inkscape:output_extension="org.inkscape.output.svg.inkscape"
   inkscape:export-ydpi="90"
   inkscape:version="0.92.4 (5da689c313, 2019-01-14)">
  <defs
     id="defs1518" />
  <sodipodi:namedview
     id="base"
     bordercolor="#666666"
     inkscape:pageshadow="2"
     inkscape:window-y="0"
     pagecolor="#ffffff"
     inkscape:window-height="742"
     inkscape:zoom="0.35"
     inkscape:window-x="0"
     showgrid="false"
     borderopacity="1.0"
     inkscape:current-layer="layer1"
     inkscape:cx="-144.28571"
     inkscape:cy="520"
     inkscape:window-width="1366"
     inkscape:pageopacity="0.0"
     inkscape:document-units="mm"
     inkscape:window-maximized="1" />
  <g
     id="layer1"
     inkscape:label="Layer 1"
     inkscape:groupmode="layer"
     transform="translate(-91.874 -28.609)">
    <path
       id="path4306"
       sodipodi:nodetypes="ccsc"
       style="fill:#93c1cf;fill-rule:evenodd"
       d="m 490.63611,258.86 c 2.52,31.08 4.14,92.96 45.41,93.01 20,-7 -13.01,-72.72 -29.76,-98.22 -16.75,-25.5 -18.65,18.21 -15.65,5.21 z"
       inkscape:connector-curvature="0" />
    <ellipse
       id="path4288"
       style="fill:#002b22;stroke-width:1.35850549"
       cx="667.13141"
       cy="268.62994"
       rx="5.2852697"
       ry="7.0709972" />
    <path
       id="path4314"
       sodipodi:nodetypes="cccsccccccc"
       style="fill:#bcdee8"
       d="m 512.58611,95.015 c 93.37,-0.369 185.67,27.065 177.94,105.22 -4.567,34.12 -15.09,61.19 -30.19,81.65 0.64,1.11 1.04,2.55 1.04,4.12 0,3.52 -1.91,6.38 -4.25,6.38 -26.63,35.65 -93.21,40.06 -137.16,35.37 -79.63,-16.8 -295.39,-125.69 -317.85,-108.31 -58.87,2.82 -81.85,7.78 -110.240001,-27.32 0,0 94.200001,4.67 96.320001,-35.64 55.19,92.68 118.96,-28.44 191.05,-41.29 35.26,-12.16 84.44,-19.992 133.34,-20.185 z"
       inkscape:connector-curvature="0" />
    <path
       id="path4266"
       sodipodi:nodetypes="ccccccc"
       style="fill:#d7eef4;fill-rule:evenodd"
       d="m 508.65611,97.841 c 88.77,-0.362 176.54,26.539 169.19,103.18 -7.28,56.06 -30.48,92.7 -63.26,111.98 22.05,-21.07 37.41,-52.99 43.08,-96.71 11.2,-116.79 -198.46,-118.08 -295.98,-83.39 -20.76,3.81 -41.33,22.6 -64.38,35.54 53.9,-56.41 137.05,-67.96 211.35,-70.599 z"
       inkscape:connector-curvature="0" />
    <path
       id="path4278"
       sodipodi:nodetypes="cc"
       style="fill:none;stroke:#93c1cf;stroke-width:2.83459997"
       d="m 657.03611,285.46 c -13.08,8.13 -33.18,52.61 -164.07,-1.39"
       inkscape:connector-curvature="0" />
    <ellipse
       id="path4292"
       style="fill:#93c1cf;stroke-width:1.86545312"
       transform="scale(-1,1)"
       cx="-570.66809"
       cy="108.13341"
       rx="11.768"
       ry="5.9141998" />
    <ellipse
       id="path4290"
       style="fill:#006680;stroke-width:1.5"
       transform="scale(-1,1)"
       cx="-571.38013"
       cy="106.71491"
       rx="10"
       ry="4.5" />
    <path
       id="path4296"
       sodipodi:nodetypes="cccc"
       style="fill:#93c1cf;fill-rule:evenodd"
       d="m 454.84611,263.11 c -2.52,31.07 -4.15,92.95 -45.42,93.01 -20,-7 5.2,-80.12 29.76,-98.22 10.39,-6.41 17.95,-0.88 15.66,5.21 z"
       inkscape:connector-curvature="0" />
    <path
       id="path4298"
       sodipodi:nodetypes="cccc"
       style="fill:#d7eef4;fill-rule:evenodd"
       d="m 441.37611,316.17 c -5.99,24.15 -4.9,34.99 -31.09,35.03 -4.18,-1.46 -6.06,-6.52 -5.57,-12.85 32.44,3.76 29.24,-9.83 36.66,-22.18 z"
       inkscape:connector-curvature="0" />
    <path
       id="path4317"
       sodipodi:nodetypes="cccc"
       style="fill:#93c1cf;fill-rule:evenodd"
       d="m 186.90611,167.58 c 0,0 9.19,25.45 19.45,31.46 -12.73,4.95 -85.56,7.78 -90.51,-4.95 24.04,2.24 62.22,-2.68 71.06,-26.51 z"
       inkscape:connector-curvature="0" />
    <path
       id="path4319"
       style="fill:#f2f2f2;fill-rule:evenodd"
       d="m 604.16611,28.617 c 16.67,0.47 32.91,18.492 24.59,34.812 -4.9,17.134 -31.31,0.385 -17.91,-4.281 1.75,11.736 18.95,-0.436 12,-10.219 -8.66,-20.178 -37.71,-14.454 -48,1.25 -11.76,15.651 -10.63,38.088 -0.9,54.441 -9.32,9.46 -11.12,-9.085 -13.5,-15.534 -1.53,-6.058 -1.8,-12.427 -0.97,-18.657 -0.02,-0.011 -0.04,-0.019 -0.06,-0.031 0.03,-0.053 0.06,-0.103 0.09,-0.156 0.62,-4.529 1.83,-8.973 3.56,-13.188 -0.01,-2.547 -0.43,-5.109 -1.28,-7.531 -2.1,-6.267 -7.75,-11.295 -14.37,-12.125 -4.86,-0.753 -10.34,2.015 -11.75,6.906 -0.87,2.361 -0.04,5.586 2.56,6.407 1.1,0.763 1.88,-1.044 2.37,0.25 0.48,-1.086 0.94,-2.196 1.41,-3.282 1.59,0.728 2.04,2.926 1.19,4.375 -1.45,2.67 -5.17,2.913 -7.53,1.375 -3.57,-2.119 -4.62,-6.897 -3.22,-10.625 1.87,-5.794 8.1,-9.34 14.03,-9 7.15,0.305 13.79,4.805 17.12,11.063 1.09,1.976 1.85,4.086 2.35,6.25 6.22,-10.928 16.38,-19.371 29.37,-21.719 1.83,-0.352 3.68,-0.558 5.53,-0.625 1.11,-0.13 2.2,-0.187 3.32,-0.156 z"
       inkscape:connector-curvature="0" />
    <path
       id="path4334"
       style="fill:#bcdee8;fill-rule:evenodd"
       d="m 603.45611,29.851 c 12.87,0.362 25.46,11.626 25.76,24.169 -2.06,-11.259 -13.61,-20.774 -25.43,-21.107 -1.07,-0.03 -2.12,0.025 -3.18,0.15 -1.78,0.064 -3.56,0.262 -5.32,0.601 -12.48,2.255 -22.24,10.367 -28.22,20.866 -0.47,-2.079 -1.2,-4.107 -2.25,-6.005 -3.21,-6.012 -9.58,-10.335 -16.45,-10.628 -5.7,-0.327 -11.68,3.079 -13.48,8.647 -0.32,0.84 -0.52,1.737 -0.57,2.642 -0.52,-1.85 -0.44,-3.914 0.24,-5.705 1.79,-5.567 7.78,-8.974 13.48,-8.647 6.87,0.293 13.24,4.617 16.45,10.629 1.04,1.898 1.78,3.926 2.25,6.005 5.98,-10.5 15.74,-18.611 28.22,-20.867 1.76,-0.338 3.54,-0.536 5.32,-0.6 1.06,-0.126 2.11,-0.181 3.18,-0.15 z m -59.72,18.314 c 1.42,0.646 1.87,2.497 1.29,3.873 -0.24,-0.341 -0.55,-0.626 -0.96,-0.81 -0.43,0.993 -0.86,2.006 -1.29,3.002 -0.04,0.016 -0.08,0.045 -0.12,0.06 -0.47,-0.999 -1.19,0.557 -2.22,-0.15 -2.2,-0.696 -3.1,-3.179 -2.7,-5.314 0.43,1.035 1.22,1.889 2.37,2.251 1.06,0.734 1.81,-1.002 2.28,0.241 0.46,-1.043 0.9,-2.11 1.35,-3.153 z m 79.21,6.725 c 2.73,8.787 -11.2,17.669 -12.73,7.356 -1.9,0.66 -2.94,1.59 -3.37,2.612 -1.2,-2.153 -0.66,-4.389 3.04,-5.674 1.35,9.1 12.36,3.248 13.06,-4.294 z m -59.03,1.322 c 0.25,1.33 0.39,2.676 0.39,4.023 -1.67,4.049 -2.83,8.318 -3.42,12.67 -0.03,0.051 -0.06,0.099 -0.09,0.15 0.02,0.011 0.04,0.019 0.06,0.03 -0.47,3.541 -0.57,7.144 -0.27,10.689 -0.69,-4.533 -0.67,-9.182 -0.06,-13.751 -0.02,-0.012 -0.04,-0.019 -0.06,-0.03 0.03,-0.052 0.06,-0.099 0.09,-0.151 0.59,-4.351 1.75,-8.621 3.42,-12.67 0,-0.321 -0.05,-0.639 -0.06,-0.96 z m 3.69,27.231 c 0.97,6.863 3.32,13.552 6.82,19.427 -0.31,0.31 -0.62,0.59 -0.9,0.84 -3.28,-6.214 -5.35,-13.202 -5.92,-20.267 z"
       inkscape:connector-curvature="0" />
    <ellipse
       id="path4274"
       style="fill:#93c1cf;stroke-width:1.63828635"
       transform="scale(-1,1)"
       cx="-516.24475"
       cy="260.16394"
       rx="12.399117"
       ry="21.213629" />
    <ellipse
       id="path4312"
       style="fill:#70adc0;stroke-width:1.24545252"
       transform="scale(-1,1)"
       cx="-515.98553"
       cy="264.2623"
       rx="9.1495094"
       ry="16.614323" />
    <circle
       id="path4276"
       style="fill:#000000;stroke-width:1.57133269"
       cx="514.93756"
       cy="270.62994"
       r="7.0709972" />
    <ellipse
       id="path4310"
       style="fill:#ffffff;stroke-width:0.84910798"
       cx="511.67715"
       cy="267.88184"
       rx="3.8209224"
       ry="3.8210497" />
    <path
       id="path4284"
       style="fill:none;stroke:#93c1cf;stroke-width:2.12599993"
       d="m 492.96611,279.75 c 0,0 -10,7 -4,12"
       inkscape:connector-curvature="0" />
    <path
       id="path4282"
       sodipodi:nodetypes="cssc"
       style="fill:#93c1cf;fill-rule:evenodd"
       d="m 629.55611,308.65 c -1.77,1.76 -28.99,11.31 -52.33,5.3 -5.09,-1.31 23.67,10.86 34.65,4.95 10.62,-5.72 17.68,-10.25 17.68,-10.25 z"
       inkscape:connector-curvature="0" />
  </g>
  <metadata
     id="metadata1515">
    <rdf:RDF>
      <cc:Work>
        <dc:format>image/svg+xml</dc:format>
        <dc:type
           rdf:resource="http://purl.org/dc/dcmitype/StillImage" />
        <cc:license
           rdf:resource="http://creativecommons.org/licenses/publicdomain/" />
        <dc:publisher>
          <cc:Agent
             rdf:about="http://openclipart.org/">
            <dc:title>Openclipart</dc:title>
          </cc:Agent>
        </dc:publisher>
        <dc:title>cartoon whale</dc:title>
        <dc:date>2008-11-24T06:18:13</dc:date>
        <dc:description />
        <dc:source>https://openclipart.org/detail/20387/cartoon-whale-by-rg1024</dc:source>
        <dc:creator>
          <cc:Agent>
            <dc:title>rg1024</dc:title>
          </cc:Agent>
        </dc:creator>
        <dc:subject>
          <rdf:Bag>
            <rdf:li>cartoon</rdf:li>
            <rdf:li>color</rdf:li>
            <rdf:li>mammal</rdf:li>
            <rdf:li>sea</rdf:li>
            <rdf:li>whale</rdf:li>
          </rdf:Bag>
        </dc:subject>
      </cc:Work>
      <cc:License
         rdf:about="http://creativecommons.org/licenses/publicdomain/">
        <cc:permits
           rdf:resource="http://creativecommons.org/ns#Reproduction" />
        <cc:permits
           rdf:resource="http://creativecommons.org/ns#Distribution" />
        <cc:permits
           rdf:resource="http://creativecommons.org/ns#DerivativeWorks" />
      </cc:License>
    </rdf:RDF>
  </metadata>
</svg>
